<svg width="46" height="46" viewBox="0 0 46 46" fill="none" xmlns="http://www.w3.org/2000/svg">
<g clip-path="url(#clip0_3972_72499)">
<path d="M40.9878 7.36809C38.6042 7.35014 36.212 7.33219 33.8283 7.37707C33.076 7.38604 32.8309 7.12575 32.8732 6.34487C32.9239 5.39346 32.8985 4.44204 32.8732 3.49063C32.8309 1.30058 31.6391 0.0260435 29.5681 0.00809232C26.1532 -0.0098589 19.932 -0.0098589 16.5171 0.00809232C14.3024 0.0170679 13.1106 1.31853 13.1021 3.70604C13.0937 4.8639 13.1021 6.01278 13.1021 7.36809C12.595 7.36809 12.2315 7.36809 11.8765 7.36809C9.52661 7.36809 7.16828 7.34117 4.81841 7.37707C1.92756 7.41297 0.0256865 9.45043 0.00878099 12.5021C0.000328212 14.2973 0.000328212 16.0924 0.00878099 17.8875C0.00878099 19.4134 0.515948 20.7507 1.64017 21.6932C2.21496 22.1779 2.34175 22.6895 2.33329 23.3985C2.30794 28.362 2.29103 33.3256 2.31639 38.2891C2.32484 41.0266 4.0154 43.1539 6.52587 43.2526C10.5325 43.3962 16.4156 43.3244 20.4307 43.2975C21.3943 43.2885 22.0198 42.5166 21.986 41.6101C21.9522 40.6945 21.3013 40.0483 20.3462 39.9944C20.1179 39.9765 19.8813 39.9855 19.653 39.9855C16.2719 39.9855 11.0143 39.9855 7.63319 39.9855C5.88346 39.9855 5.42701 39.5098 5.41856 37.7057C5.41011 33.164 5.41011 28.6223 5.41011 24.0807C5.41011 23.7127 5.44392 23.3357 5.46927 22.9946C7.55711 22.9946 9.52661 22.9946 11.5299 22.9946C11.6398 24.314 11.2256 26.0194 13.0261 26.1002C15.0632 26.1899 14.5645 24.2871 14.7673 22.9049C15.1731 22.9049 15.5281 22.9049 15.8831 22.9049C23.3469 22.9049 33.6086 22.9049 41.0724 22.8959C44.0647 22.8959 45.9665 20.8674 45.9919 17.6811C46.0088 16.0296 46.0003 14.3691 45.9919 12.7176C45.975 9.36965 44.1238 7.38604 40.9878 7.36809ZM16.2804 3.34702C19.8221 3.34702 26.1279 3.34702 29.7372 3.34702C29.7372 4.68439 29.7372 5.94097 29.7372 7.27834C26.1955 7.27834 19.8644 7.27834 16.2804 7.27834C16.2804 5.9679 16.2804 4.69336 16.2804 3.34702ZM42.8559 17.8696C42.8475 18.9915 42.3065 19.6019 41.2583 19.6019C33.4987 19.6198 22.9412 19.6108 15.1815 19.6108C15.0547 19.6108 14.9279 19.557 14.7589 19.5211C14.4799 16.954 14.1587 16.3617 13.119 16.3617C12.054 16.3617 11.7328 16.963 11.4707 19.4941C11.2763 19.53 11.065 19.6108 10.8452 19.6108C8.85884 19.6198 6.86398 19.6288 4.87758 19.6019C3.64348 19.5839 3.13631 19.0364 3.1194 17.717C3.1025 15.9937 3.1025 14.2703 3.1194 12.547C3.13631 11.2545 3.68574 10.6532 4.87758 10.6532C15.9845 10.6442 29.8893 10.6442 40.9963 10.6532C42.1966 10.6532 42.7798 11.2007 42.8052 12.3855C42.8644 14.2165 42.8728 16.0475 42.8559 17.8696Z" fill="#718099"/>
<path d="M45.3575 30.9656C45.1969 30.8759 45.0447 30.7772 44.8926 30.6874C42.2553 29.2333 39.6181 27.7703 36.9808 26.3163C36.5835 26.1009 36.1778 25.8944 35.7636 25.7059C35.5523 25.6072 35.324 25.6252 35.1127 25.7418C34.9859 25.8047 34.8591 25.8765 34.7408 25.9483C32.2557 27.3126 29.7706 28.6858 27.2939 30.0501C26.736 30.3643 26.1781 30.6874 25.6203 31.0105C25.4681 31.1003 25.4174 31.208 25.4428 31.3875C25.4512 31.4414 25.4597 31.4952 25.4766 31.5311C25.6118 31.8273 25.747 32.1235 25.8992 32.4107C26.0175 32.6351 26.2204 32.7338 26.4655 32.7338C26.8544 32.7338 27.2432 32.7428 27.632 32.7518C30.2693 32.7608 32.8981 32.7697 35.5354 32.7697C36.9639 32.7697 38.3924 32.7697 39.8294 32.7608C41.4016 32.7518 42.9738 32.7428 44.5376 32.7338C44.8081 32.7338 45.0025 32.6172 45.1462 32.3838C45.3321 32.0786 45.4843 31.7555 45.5942 31.4054C45.5942 31.3426 45.5942 31.2708 45.5942 31.208C45.5519 31.0913 45.4589 31.0195 45.3575 30.9656ZM35.5185 31.217C34.7831 31.3067 33.9547 30.4899 34.0561 29.6283C33.9631 28.8294 34.7831 28.0755 35.4508 28.0665C36.3384 28.0575 37.0738 28.8384 36.9977 29.6373C37.0653 30.5079 36.2454 31.3067 35.5185 31.217Z" fill="#718099"/>
<path d="M40.252 34.888C40.252 35.3817 40.2689 35.8753 40.2774 36.378C40.2943 38.3975 40.3027 40.417 40.3196 42.4455C40.3196 42.4814 40.3196 42.5173 40.3196 42.5711C41.0804 42.5711 41.8242 42.5711 42.5934 42.5711C42.5934 42.5263 42.5934 42.4724 42.5934 42.4186C42.6019 39.9054 42.6019 37.3832 42.6103 34.8701C42.6103 34.8252 42.6103 34.7713 42.6272 34.7444C42.7371 34.6367 42.8385 34.511 43.0076 34.5021C43.1344 34.4931 43.2274 34.4303 43.2865 34.3136C43.4302 34.0533 43.2612 33.7481 42.9653 33.7302C42.8216 33.7212 42.6864 33.7212 42.5427 33.7212C41.6805 33.7212 40.8183 33.7212 39.9477 33.7302C39.7364 33.7302 39.5758 33.9097 39.5673 34.1251C39.5589 34.3585 39.6772 34.4751 39.9139 34.529C40.1252 34.5469 40.2604 34.6098 40.252 34.888Z" fill="#718099"/>
<path d="M28.2407 42.5802C28.9338 42.5713 29.6354 42.5623 30.3285 42.5623C30.4299 42.5623 30.4553 42.5354 30.4553 42.4277C30.4553 41.198 30.4553 39.9773 30.4638 38.7477C30.4722 37.4731 30.4891 36.1986 30.506 34.9241C30.506 34.6548 30.6328 34.5291 30.8779 34.5022C31.0808 34.4753 31.233 34.2509 31.1907 34.0355C31.1484 33.847 30.9878 33.7213 30.7596 33.7213C29.9228 33.7123 29.0775 33.7034 28.2407 33.7034C28.0632 33.7034 27.8857 33.7034 27.7166 33.7393C27.4377 33.7931 27.3278 34.1252 27.5222 34.3406C27.5898 34.4124 27.6828 34.4573 27.7758 34.5022C27.8434 34.5381 27.9195 34.5471 27.9871 34.592C28.1054 34.6638 28.1731 34.7625 28.1731 34.9241C28.1731 37.4372 28.1815 39.9504 28.19 42.4636C28.19 42.4995 28.19 42.5354 28.19 42.5802C28.2069 42.5802 28.2238 42.5802 28.2407 42.5802Z" fill="#718099"/>
<path d="M33.9548 34.5381C34.1154 34.592 34.2084 34.7086 34.2084 34.8881C34.2084 35.0407 34.2253 35.2023 34.2253 35.3549C34.2337 37.7065 34.2422 40.0671 34.2506 42.4187C34.2506 42.4636 34.2506 42.5084 34.2506 42.5623C35.0114 42.5623 35.7552 42.5623 36.5075 42.5623C36.5075 42.5174 36.5075 42.4815 36.5075 42.4546C36.516 40.2556 36.5244 38.0565 36.5329 35.8575C36.5329 35.5523 36.5413 35.2561 36.5498 34.951C36.5582 34.6817 36.6259 34.592 36.871 34.5112C36.9724 34.4753 37.0739 34.4304 37.1499 34.3676C37.319 34.224 37.319 33.9637 37.133 33.838C37.0485 33.7752 36.9386 33.7213 36.8456 33.7213C36.0004 33.7034 35.1551 33.7034 34.3183 33.7034C34.1577 33.7034 34.0055 33.7123 33.8449 33.7303C33.6674 33.7482 33.5237 33.8919 33.4983 34.0714C33.473 34.224 33.5575 34.3765 33.7181 34.4573C33.7942 34.4932 33.8787 34.5112 33.9548 34.5381Z" fill="#718099"/>
<path d="M44.0473 43.5046L43.8022 43.4956C43.3373 43.4866 42.8639 43.4687 42.399 43.4687L29.6015 43.4597L29.1789 43.4687C28.8407 43.4687 28.4942 43.4777 28.1476 43.4866C27.7757 43.4956 27.4122 43.4956 27.0403 43.5046C26.6008 43.5046 26.2373 43.7559 26.0429 44.1867C25.8738 44.5637 25.8823 44.9766 26.0682 45.3356C26.2542 45.6857 26.5839 45.9101 26.9727 45.9549C27.0572 45.9639 27.1417 45.9729 27.2263 45.9729L27.6912 45.9819C28.79 45.9998 29.8889 46.0088 30.9877 46.0088C31.6893 46.0088 32.3825 46.0088 33.084 46.0088L42.2046 45.9998C42.5342 45.9998 42.8724 45.9908 43.202 45.9819C43.4894 45.9729 43.7768 45.9639 44.0642 45.9639C44.3431 45.9639 44.6052 45.8383 44.808 45.6228C45.0278 45.3805 45.1546 45.0574 45.1546 44.7253C45.1208 44.0521 44.6474 43.5136 44.0473 43.5046Z" fill="#718099"/>
</g>
<defs>
<clipPath id="clip0_3972_72499">
<rect width="46" height="46" fill="white"/>
</clipPath>
</defs>
</svg>
