<svg width="8" height="8" viewBox="0 0 8 8" fill="none" xmlns="http://www.w3.org/2000/svg">
<path d="M6.83171 7.79859L0.179074 1.14823C0.0602033 1.01785 -0.003863 0.846715 0.000180378 0.670356C0.00422375 0.493997 0.0760661 0.325972 0.200787 0.201176C0.325508 0.0763802 0.493523 0.00440392 0.669938 0.000195474C0.846353 -0.00401297 1.01761 0.0598698 1.14814 0.178577L7.80079 6.82894C7.92842 6.95805 8 7.13225 8 7.31377C8 7.49529 7.92842 7.66949 7.80079 7.79859C7.73719 7.86243 7.66161 7.91308 7.57838 7.94765C7.49515 7.98221 7.40592 8 7.31579 8C7.22567 8 7.13643 7.98221 7.0532 7.94765C6.96998 7.91308 6.89531 7.86243 6.83171 7.79859Z" fill="white"/>
<path d="M0.199064 7.79873C0.0715249 7.66971 0 7.49563 0 7.31424C0 7.13284 0.0715249 6.95877 0.199064 6.82975L6.84669 0.184007C6.97669 0.0629031 7.14864 -0.00302703 7.3263 0.000106814C7.50397 0.00324066 7.67349 0.0751938 7.79914 0.200807C7.92479 0.326421 7.99676 0.495888 7.99989 0.673504C8.00303 0.851121 7.93708 1.02302 7.81594 1.15299L1.16832 7.79873C1.10598 7.86412 1.03068 7.91578 0.947234 7.95041C0.863784 7.98504 0.774022 8.00187 0.683692 7.99984C0.593602 8.00016 0.50435 7.98254 0.421144 7.94801C0.337937 7.91348 0.262442 7.86274 0.199064 7.79873Z" fill="white"/>
</svg>
