<svg width="12" height="12" viewBox="0 0 12 12" fill="none" xmlns="http://www.w3.org/2000/svg">
<path d="M6 12C4.81331 12 3.65328 11.6481 2.66658 10.9888C1.67989 10.3295 0.910851 9.39246 0.456725 8.2961C0.0025997 7.19975 -0.11622 5.99335 0.115291 4.82946C0.346802 3.66557 0.918247 2.59648 1.75736 1.75736C2.59648 0.918247 3.66557 0.346802 4.82946 0.115291C5.99335 -0.11622 7.19975 0.0025997 8.2961 0.456725C9.39246 0.910851 10.3295 1.67989 10.9888 2.66658C11.6481 3.65328 12 4.81331 12 6C11.9983 7.59076 11.3656 9.11587 10.2407 10.2407C9.11587 11.3656 7.59076 11.9983 6 12ZM6 7.8C5.9218 7.8 5.84434 7.81529 5.772 7.845C5.69937 7.87581 5.63244 7.9186 5.574 7.9716C5.52103 8.02972 5.47842 8.09649 5.448 8.169C5.41637 8.24085 5.40003 8.3185 5.40003 8.397C5.40003 8.47551 5.41637 8.55315 5.448 8.625C5.47681 8.69835 5.5196 8.76539 5.574 8.8224C5.63244 8.8754 5.69937 8.9182 5.772 8.949C5.84396 8.98066 5.92141 8.99798 6 9C6.07842 8.99915 6.1559 8.98284 6.228 8.952C6.30068 8.92129 6.36763 8.87848 6.426 8.8254C6.4804 8.76839 6.5232 8.70135 6.552 8.628C6.58364 8.55615 6.59997 8.47851 6.59997 8.4C6.59997 8.3215 6.58364 8.24385 6.552 8.172C6.52159 8.09949 6.47897 8.03272 6.426 7.9746C6.36763 7.92152 6.30068 7.87871 6.228 7.848C6.1559 7.81717 6.07842 7.80086 6 7.8ZM6 3.15C5.88114 3.15156 5.76758 3.19947 5.68352 3.28352C5.59947 3.36758 5.55156 3.48114 5.55 3.6V6.6C5.5514 6.71897 5.59924 6.83268 5.68331 6.91687C5.76739 7.00105 5.88104 7.04904 6 7.0506C6.1194 7.05044 6.23386 7.0029 6.31824 6.91841C6.40261 6.83393 6.45 6.7194 6.45 6.6V3.6C6.44984 3.4807 6.40238 3.36634 6.31802 3.28198C6.23367 3.19762 6.1193 3.15016 6 3.15Z" fill="#EE4F64"/>
</svg>
