<svg width="20" height="20" viewBox="0 0 20 20" fill="none" xmlns="http://www.w3.org/2000/svg">
<g clip-path="url(#clip0_2372_186022)">
<rect width="20" height="20" transform="matrix(-1 0 0 -1 20 20)" fill="white"/>
<path d="M10 -1.90735e-06C11.9778 -1.90735e-06 13.9112 0.586489 15.5557 1.6853C17.2002 2.78412 18.4819 4.3459 19.2388 6.17316C19.9957 8.00042 20.1937 10.0111 19.8078 11.9509C19.422 13.8907 18.4696 15.6725 17.0711 17.0711C15.6725 18.4696 13.8907 19.422 11.9509 19.8078C10.0111 20.1937 8.00042 19.9957 6.17316 19.2388C4.3459 18.4819 2.78412 17.2002 1.6853 15.5557C0.586489 13.9112 -1.90735e-06 11.9778 -1.90735e-06 10C0.00291061 7.34873 1.05741 4.80688 2.93215 2.93215C4.80688 1.05741 7.34873 0.00291061 10 -1.90735e-06ZM10 7C10.1303 7 10.2594 6.97452 10.38 6.925C10.501 6.87366 10.6126 6.80233 10.71 6.714C10.7983 6.61713 10.8693 6.50586 10.92 6.385C10.9727 6.26525 10.9999 6.13584 10.9999 6.005C10.9999 5.87416 10.9727 5.74475 10.92 5.625C10.872 5.50275 10.8007 5.39101 10.71 5.296C10.6126 5.20766 10.501 5.13634 10.38 5.085C10.2601 5.03224 10.131 5.00336 10 5C9.8693 5.00142 9.74017 5.02861 9.62 5.08C9.49887 5.13118 9.38729 5.20253 9.29 5.291C9.19933 5.38601 9.12801 5.49775 9.08 5.62C9.02727 5.73975 9.00004 5.86915 9.00004 6C9.00004 6.13084 9.02727 6.26025 9.08 6.38C9.13069 6.50086 9.20171 6.61213 9.29 6.709C9.38729 6.79747 9.49887 6.86881 9.62 6.92C9.74017 6.97139 9.8693 6.99857 10 7ZM10 14.75C10.1981 14.7474 10.3874 14.6676 10.5275 14.5275C10.6676 14.3874 10.7474 14.1981 10.75 14L10.75 9C10.7477 8.80172 10.6679 8.6122 10.5278 8.47189C10.3877 8.33158 10.1983 8.25159 10 8.249C9.80099 8.24926 9.61023 8.3285 9.46961 8.46931C9.32898 8.61012 9.25 8.80099 9.25 9L9.25 14C9.25026 14.1988 9.32936 14.3894 9.46996 14.53C9.61055 14.6706 9.80117 14.7497 10 14.75Z" fill="#23D0E8"/>
</g>
<defs>
<clipPath id="clip0_2372_186022">
<rect width="20" height="20" fill="white" transform="matrix(-1 0 0 -1 20 20)"/>
</clipPath>
</defs>
</svg>
