<svg width="14" height="18" viewBox="0 0 14 18" fill="none" xmlns="http://www.w3.org/2000/svg">
<g id="basic - location 1" clip-path="url(#clip0_2697_2952)">
<path id="basic / location" d="M7 18.0001C5.73693 16.9227 4.56619 15.7416 3.5 14.4691C1.9 12.5581 8.78894e-07 9.71209 8.78894e-07 7.00009C-0.00069302 5.61505 0.409509 4.26094 1.17869 3.10912C1.94788 1.9573 3.04147 1.05955 4.32107 0.52949C5.60067 -0.000571251 7.00875 -0.139118 8.36712 0.131384C9.72548 0.401885 10.9731 1.06928 11.952 2.04909C12.6038 2.69795 13.1204 3.46963 13.4719 4.31947C13.8234 5.1693 14.0029 6.08042 14 7.00009C14 9.71209 12.1 12.5581 10.5 14.4691C9.43382 15.7416 8.26307 16.9227 7 18.0001ZM7 4.00009C6.60604 4.00009 6.21593 4.07769 5.85195 4.22845C5.48797 4.37922 5.15726 4.6002 4.87868 4.87877C4.6001 5.15735 4.37913 5.48806 4.22836 5.85204C4.0776 6.21602 4 6.60613 4 7.00009C4 7.39406 4.0776 7.78417 4.22836 8.14814C4.37913 8.51212 4.6001 8.84284 4.87868 9.12141C5.15726 9.39999 5.48797 9.62097 5.85195 9.77173C6.21593 9.9225 6.60604 10.0001 7 10.0001C7.79565 10.0001 8.55871 9.68402 9.12132 9.12141C9.68393 8.5588 10 7.79574 10 7.00009C10 6.20444 9.68393 5.44138 9.12132 4.87877C8.55871 4.31616 7.79565 4.00009 7 4.00009Z" fill="#0E2B43"/>
</g>
<defs>
<clipPath id="clip0_2697_2952">
<rect width="14" height="18" fill="white"/>
</clipPath>
</defs>
</svg>
