<svg width="52" height="46" viewBox="0 0 52 46" fill="none" xmlns="http://www.w3.org/2000/svg">
<g clip-path="url(#clip0_3972_72493)">
<path d="M24.2868 33.0927C24.2868 29.3831 24.2868 25.6734 24.2868 21.9556C24.2868 21.3522 24.2868 21.3522 23.6595 21.3522C18.4002 21.3522 13.1495 21.3441 7.89019 21.3604C7.23707 21.3604 6.76442 21.1158 6.31755 20.7163C5.22616 19.7461 4.11759 18.7921 3.0262 17.8301C2.0809 16.9903 1.1356 16.1505 0.198896 15.3026C-0.0932874 15.0335 -0.0331321 14.3568 0.267645 14.0389C0.611389 13.672 1.04107 13.3948 1.4106 13.0605C2.53636 12.0658 3.67072 11.0793 4.80508 10.0846C5.38085 9.58724 5.94803 9.08175 6.53239 8.59256C6.87614 8.31535 7.26285 8.14414 7.74409 8.14414C12.9776 8.15229 18.2197 8.15229 23.4532 8.15229C23.5649 8.15229 23.6767 8.15229 23.7884 8.15229C24.2782 8.15229 24.2868 8.13599 24.2868 7.65495C24.2868 6.50536 24.3126 5.35576 24.2782 4.20617C24.2524 3.32563 24.579 2.60816 25.3009 2.10266C26.0141 1.60532 26.8047 1.4178 27.6985 1.73577C28.8672 2.14343 29.4945 3.13811 29.4602 4.24694C29.443 4.81766 29.4602 5.39653 29.4602 5.96725C29.4602 6.38306 29.4688 6.39937 29.8899 6.24446C30.3453 6.07324 30.7922 5.86941 31.239 5.68189C32.4336 5.18455 33.6281 4.69536 34.8226 4.19802C36.1804 3.6273 37.5296 3.04843 38.8874 2.48586C40.1077 1.98037 41.3366 1.50748 42.5397 0.97753C43.2014 0.69217 43.8803 0.439423 44.5248 0.137757C45.1006 -0.131297 45.5646 0.00730641 46.063 0.308973C47.3349 1.09167 48.6154 1.86622 49.913 2.60816C50.4802 2.93428 51.0302 3.25226 51.563 3.60284C52.0012 3.8882 52.1044 4.19802 51.8981 4.6709C51.477 5.65743 51.0388 6.64396 50.6177 7.63864C50.1021 8.86161 49.5692 10.0683 49.1052 11.3076C48.8216 12.0576 48.2888 12.4327 47.524 12.661C46.9052 12.8403 46.3209 13.1176 45.7279 13.3703C45.3584 13.5252 45.0232 13.5415 44.6451 13.354C43.9748 13.0197 43.2701 12.7425 42.5826 12.4408C42.2819 12.3104 41.9811 12.1718 41.6803 12.025C41.6115 11.9924 41.4826 11.968 41.4998 11.862C41.5084 11.7641 41.6373 11.756 41.7061 11.7234C42.1959 11.5195 42.6943 11.3402 43.1928 11.1445C43.7943 10.9081 44.3873 10.6798 44.9888 10.4433C45.2638 10.3373 45.5388 10.1987 45.8224 10.1172C46.2349 9.9949 46.4412 9.68508 46.5615 9.34265C46.9052 8.35612 47.4208 7.43482 47.756 6.44829C47.8591 6.13847 48.0224 5.84495 48.1513 5.54329C48.2286 5.36392 48.2716 5.20086 48.0654 5.06225C47.1888 4.47523 46.2435 3.98604 45.3584 3.41532C44.9717 3.16257 44.6365 3.31748 44.3185 3.46424C43.2529 3.94527 42.1358 4.33662 41.0702 4.82581C40.1249 5.25793 39.1538 5.63297 38.1999 6.04063C37.2202 6.45644 36.2491 6.87225 35.2609 7.27175C34.6077 7.53265 33.9546 7.80986 33.2929 8.07891C33.0781 8.1686 32.8804 8.13599 32.6828 8.0463C31.7203 7.61418 30.7664 7.19022 29.8039 6.76626C29.5031 6.63581 29.4516 6.66027 29.4516 6.97824C29.443 7.53265 29.4602 8.08707 29.443 8.63333C29.4344 8.86977 29.5461 9.00837 29.761 9.10621C31.0844 9.68508 32.4164 10.264 33.7398 10.8591C34.6335 11.2586 35.5273 11.6826 36.421 12.0821C37.2804 12.4653 38.1483 12.824 39.0077 13.2072C39.91 13.6067 40.7952 14.0226 41.6975 14.4302C42.5654 14.8134 43.442 15.1803 44.3099 15.5716C45.0232 15.8896 45.7451 16.2157 46.4498 16.55C47.0685 16.8435 47.2576 17.4306 47.4724 17.985C47.8076 18.8655 48.1599 19.7297 48.4864 20.6103C48.8474 21.5887 49.2857 22.5426 49.6294 23.5291C49.7755 23.9531 49.9388 24.3689 50.1106 24.7847C50.3513 25.3717 50.2138 25.7794 49.7067 26.1789C48.6755 26.9942 47.5669 27.6954 46.5443 28.5188C46.1146 28.8694 45.6334 29.1629 45.1607 29.4727C44.9115 29.6358 44.6193 29.6766 44.3271 29.5543C43.5365 29.2282 42.7373 28.9265 41.9725 28.5678C41.1045 28.1601 40.2108 27.8014 39.3256 27.41C38.1483 26.8964 36.9624 26.4153 35.7765 25.9017C34.4788 25.3473 33.1812 24.7765 31.8836 24.214C31.2047 23.9205 30.5086 23.6596 29.8469 23.3334C29.5461 23.1867 29.443 23.2682 29.443 23.6269C29.443 25.5266 29.443 27.4345 29.443 29.3341C29.443 34.2913 29.443 39.2484 29.443 44.1973C29.443 44.8985 29.2024 45.4855 28.5235 45.8524C28.2914 45.9829 28.0336 46.0073 27.7758 46.0073C27.1829 46.0155 26.5899 45.9829 25.9969 46.0155C25.0345 46.0725 24.2438 45.2328 24.2524 44.3441C24.304 40.5855 24.2868 36.8432 24.2868 33.0927ZM46.8623 24.4341C46.7763 24.1895 46.6646 23.8715 46.5443 23.5536C46.2865 22.9095 46.0201 22.2735 45.7709 21.6294C45.4615 20.8386 45.1607 20.0396 44.8428 19.2487C44.774 19.0693 44.6365 18.9307 44.4389 18.8411C43.992 18.6454 43.5451 18.4497 43.1068 18.2459C41.9983 17.7322 40.8639 17.2512 39.7467 16.7539C39.0678 16.4522 38.3975 16.1424 37.7186 15.8407C36.8679 15.4657 36.0085 15.1151 35.1577 14.7319C34.3929 14.3894 33.6367 14.0226 32.8718 13.6801C31.8406 13.2235 30.8008 12.7833 29.7695 12.3185C29.5203 12.2044 29.4602 12.2696 29.4602 12.5061C29.4602 14.8542 29.4688 17.2023 29.4602 19.5504C29.4602 19.7705 29.5719 19.8928 29.7524 19.9662C30.4227 20.2352 31.0672 20.5451 31.7375 20.8141C33.0695 21.3441 34.3585 21.9474 35.682 22.4855C36.9624 23.0073 38.2171 23.5862 39.4803 24.1243C41.0959 24.8173 42.7029 25.5348 44.3271 26.1952C44.5076 26.2686 44.6709 26.293 44.8342 26.1789C45.4615 25.7386 46.0802 25.2902 46.7076 24.8418C46.8365 24.7684 46.8708 24.6542 46.8623 24.4341ZM16.269 18.042C18.7783 18.042 21.2876 18.042 23.797 18.042C24.2696 18.042 24.2868 18.0257 24.2868 17.5692C24.2868 15.7021 24.2868 13.8269 24.2868 11.9598C24.2868 11.4869 24.2782 11.4706 23.7798 11.4706C18.8041 11.4706 13.8284 11.4706 8.86127 11.4625C8.52611 11.4625 8.25112 11.5522 8.0019 11.756C7.65816 12.0413 7.3316 12.343 6.97067 12.6039C6.12849 13.1991 5.38085 13.9003 4.54727 14.5036C4.34102 14.6585 4.37539 14.8297 4.56445 14.9846C4.62461 15.0335 4.69336 15.0662 4.75351 15.1151C5.82772 15.9875 6.90192 16.8598 7.96753 17.7404C8.24253 17.9687 8.52611 18.0502 8.87845 18.0502C11.3362 18.0339 13.8026 18.042 16.269 18.042Z" fill="#EB9987"/>
</g>
<defs>
<clipPath id="clip0_3972_72493">
<rect width="52" height="46" fill="white"/>
</clipPath>
</defs>
</svg>
