<svg width="18" height="18" viewBox="0 0 18 18" fill="none" xmlns="http://www.w3.org/2000/svg">
<g id="basic - phone 1" clip-path="url(#clip0_2697_2957)">
<path id="basic / phone" d="M13.8273 17.9998H13.8008C10.1625 17.9103 6.69047 16.4575 4.07251 13.9293C1.54338 11.3137 0.0897908 7.84304 0.000109029 4.20576C-0.00259719 3.95354 0.0451003 3.70332 0.140403 3.46978C0.235705 3.23624 0.376692 3.02409 0.555092 2.84577L3.12544 0.278266C3.30304 0.100718 3.54389 0.000976562 3.79502 0.000976562C4.04614 0.000976562 4.28699 0.100718 4.46459 0.278266L8.25287 4.06654C8.43042 4.24414 8.53016 4.48499 8.53016 4.73612C8.53016 4.98725 8.43042 5.2281 8.25287 5.4057L6.74135 6.91343C7.02169 7.96082 7.53809 8.93012 8.25098 9.74706C9.06644 10.4602 10.0345 10.977 11.0808 11.2576L12.5961 9.74896C12.7737 9.57141 13.0146 9.47167 13.2657 9.47167C13.5168 9.47167 13.7577 9.57141 13.9353 9.74896L17.7236 13.5372C17.9011 13.7148 18.0009 13.9557 18.0009 14.2068C18.0009 14.4579 17.9011 14.6988 17.7236 14.8764L15.1532 17.4458C14.9796 17.6209 14.7731 17.7601 14.5456 17.8551C14.318 17.9502 14.0739 17.9994 13.8273 17.9998ZM3.79312 2.287L1.89425 4.18493C1.97148 7.32792 3.22613 10.3273 5.40977 12.5892C7.67178 14.7721 10.6706 16.0266 13.8131 16.1047L15.7139 14.2059L13.2638 11.7567L12.0393 12.9804C11.9525 13.0681 11.8493 13.1377 11.7355 13.1854C11.6217 13.233 11.4997 13.2576 11.3763 13.2578C11.3098 13.2579 11.2434 13.2509 11.1784 13.237C9.6002 12.8879 8.13486 12.1484 6.91656 11.0862C5.85437 9.86792 5.11486 8.40257 4.76576 6.82441C4.73292 6.67054 4.73892 6.51091 4.78324 6.35995C4.82755 6.20898 4.90878 6.07144 5.01958 5.95973L6.24319 4.73517L3.79312 2.287Z" fill="#0E2B43"/>
</g>
<defs>
<clipPath id="clip0_2697_2957">
<rect width="18" height="18" fill="white"/>
</clipPath>
</defs>
</svg>
