<svg width="46" height="46" viewBox="0 0 46 46" fill="none" xmlns="http://www.w3.org/2000/svg">
<path d="M22.2188 20.0566C19.8177 20.0566 19.0529 20.0732 16.6518 20.0483C13.971 20.0234 12.5484 18.4984 12.4827 15.6307C12.4662 14.8598 12.4827 14.089 12.4827 13.3099C12.4827 12.7215 12.3922 12.1247 13.2474 12.0418C14.0039 11.9672 13.749 11.2379 13.749 10.7654C13.7737 8.62705 13.7408 6.48867 13.7655 4.35029C13.7983 1.64831 15.295 0.0403839 17.8359 0.015519C21.7994 -0.0176342 24.1266 -0.00934587 28.0901 0.015519C30.7215 0.0320956 32.1852 1.60687 32.2263 4.45804C32.251 6.18201 32.1605 7.90597 32.2592 9.62994C32.3085 10.5831 31.6096 11.8761 33.3035 12.3236C33.8134 12.4562 33.5009 13.7409 33.5009 14.5034C33.5256 18.8631 32.4237 20.0566 28.4026 20.0649C26.3468 20.0566 24.2828 20.0566 22.2188 20.0566ZM22.2435 12.075C24.365 12.075 26.4866 12.0335 28.5999 12.0916C29.4716 12.1164 29.7923 11.8346 29.7676 10.8898C29.7183 8.80939 29.7265 6.72903 29.7594 4.64867C29.784 3.19822 29.1509 2.62633 27.8187 2.64291C24.0279 2.67606 21.8652 2.66777 18.0744 2.6512C16.808 2.64291 16.2406 3.25624 16.2571 4.59894C16.2817 6.6793 16.3064 8.75966 16.2324 10.84C16.1995 11.9175 16.6271 12.1247 17.5234 12.0998C19.6367 12.0335 20.1301 12.075 22.2435 12.075ZM22.153 14.7024C19.645 14.6941 18.7651 14.6858 16.2571 14.7024C15.8459 14.7024 15.2785 14.4952 15.1305 15.1416C14.9989 15.7135 14.9742 16.3186 15.3443 16.849C15.7719 17.4624 16.4051 17.4292 17.0136 17.4292C19.8588 17.4292 21.0676 17.4292 23.9128 17.4292C25.6972 17.4292 27.4816 17.4126 29.266 17.4292C30.335 17.4375 30.9271 16.9816 30.9682 15.755C31.0093 14.3128 30.0472 14.7107 29.3482 14.7107C26.9471 14.6941 24.5459 14.7024 22.153 14.7024Z" fill="#718099"/>
<path d="M45.7039 31.4457C45.1777 29.183 43.2781 27.7657 41.1155 28.0061C41.0826 28.0061 41.025 27.9729 41.0086 27.9563C39.5531 26.0086 37.3986 24.8979 35.0879 24.8979C35.0797 24.8979 35.0797 24.8979 35.0715 24.8979C32.7772 24.9062 30.6392 26.0169 29.2084 27.948C29.192 27.9729 29.1262 28.0143 29.1262 28.0143C26.9306 27.7906 25.0311 29.1664 24.513 31.3628C24.3486 32.0673 24.3321 32.7801 24.4637 33.468C24.7515 34.9351 25.6807 36.1203 27.0211 36.7171C27.1773 36.7834 27.1855 36.7916 27.1855 37.0154C27.1691 38.499 27.1773 41.1844 27.1773 43.0742V44.1185C27.1773 45.2706 27.4651 45.9834 28.9124 45.9834C30.3761 45.9834 31.8398 45.9834 33.3117 45.9834H35.0715H36.6421C37.3164 45.9834 37.9907 45.9834 38.665 45.9834C39.5613 45.9834 40.4494 45.9834 41.3457 45.9834C42.8259 45.9834 43.0314 45.1214 43.0314 44.2014C43.0314 42.3945 43.0397 38.8389 43.0232 37.032C43.0232 36.7999 43.0314 36.7916 43.1712 36.7336C45.153 35.8799 46.222 33.6587 45.7039 31.4457ZM40.2438 35.8385C40.2356 37.1232 40.2356 39.3776 40.2356 41.1596V43.041H38.8706V43.0162H37.0039V43.0244H33.2624V43.0079L29.9732 43.0244V36.8662C29.9732 36.543 29.9732 36.2198 29.9732 35.8965C29.9649 34.761 29.5785 34.2969 28.5012 34.1394C27.7529 34.0316 27.202 33.3934 27.1691 32.5978C27.1362 31.8021 27.6296 31.0893 28.2957 30.965C28.5752 30.9152 28.9371 31.0147 29.192 31.0976C30.1376 31.4043 30.7215 31.1556 31.1573 30.2522C31.9467 28.6277 33.2377 27.8403 35.1044 27.8403C36.971 27.8403 38.262 28.6277 39.0515 30.2439C39.2241 30.592 39.4708 31.0064 39.9313 31.1722C40.252 31.2882 40.6221 31.2468 41.0497 31.0561C41.6664 30.7826 42.1433 30.8821 42.6038 31.3794C43.0314 31.8435 43.1466 32.3989 42.941 33.0371C42.7354 33.7084 42.3078 34.0565 41.6088 34.1311C40.4083 34.2803 40.252 35.1174 40.2438 35.8385Z" fill="#718099"/>
<path d="M20.5824 31.885C20.5002 31.6197 20.2699 30.8075 19.5792 30.6334C18.9625 30.4677 18.4033 30.9152 18.0415 31.2633C17.7454 31.5451 17.4576 31.8352 17.1616 32.117C16.7422 32.5314 16.3146 32.9541 15.8788 33.352C15.0647 34.0979 14.0779 34.1062 13.3461 33.3851C12.6224 32.6641 12.6471 31.6943 13.4119 30.9069C13.6832 30.6251 13.9628 30.3599 14.2424 30.0947C14.6453 29.7134 15.0565 29.3239 15.4347 28.9012C15.665 28.6442 16.1913 27.9812 16.0844 27.343C15.961 26.6053 14.7276 26.2986 14.6782 26.2904C12.236 25.6936 9.70325 26.2738 7.74615 27.8734C5.75616 29.4979 4.71183 31.8601 4.86807 34.3632C4.87629 34.5538 4.75294 34.8687 4.58848 35.0428C3.92241 35.7639 3.19055 36.4601 2.48337 37.1314L2.00643 37.5873C1.8173 37.7696 1.70217 37.9354 1.6035 38.0929C0.723625 39.0875 0.238462 40.3224 0.246685 41.574C0.254908 42.8835 0.78941 44.0605 1.75974 44.8893C2.5656 45.5772 3.58526 45.9419 4.67894 45.9419C4.89274 45.9419 5.10654 45.9253 5.32856 45.9005C6.29889 45.7761 7.21165 45.3617 7.98462 44.7401C8.27243 44.6075 8.50268 44.3837 8.70003 44.1848L8.82338 44.0605C9.00428 43.8864 9.17697 43.7206 9.35788 43.5466C9.86771 43.0659 10.394 42.5768 10.8709 42.0381C11.2245 41.6486 11.537 41.5408 12.1537 41.6154C14.6864 41.9055 17.2192 40.9026 18.9296 38.93C20.6811 36.9491 21.2896 34.3134 20.5824 31.885ZM5.00786 43.4968C4.39113 43.5797 3.81551 43.4223 3.39613 43.0659C2.97675 42.7095 2.73828 42.1707 2.73828 41.5657C2.73006 40.9026 3.00142 40.2313 3.48659 39.6925C3.60993 39.5516 3.7415 39.4273 3.88952 39.3196L3.88129 39.3113C4.16088 39.0378 4.43224 38.7725 4.71183 38.499C5.4848 37.7531 6.28244 36.9823 7.03896 36.1866C7.409 35.797 7.54057 35.1423 7.48301 34.703C7.28566 33.3437 7.56524 32.1087 8.34644 30.9401C9.18519 29.6803 10.7229 28.7851 12.1208 28.6525C11.9317 28.8266 11.7508 29.0006 11.5781 29.183C9.84304 30.9484 9.84304 33.5426 11.5781 35.2086C13.2639 36.8331 15.9446 36.8082 17.6797 35.1505C17.8852 34.9516 18.0826 34.7361 18.2799 34.5123C18.1319 35.8136 17.4741 37.0237 16.4133 37.9105C15.1387 38.9714 13.5023 39.4024 11.907 39.0792C10.9367 38.8886 10.2213 39.1041 9.58813 39.7837C8.98784 40.4385 8.32177 41.0684 7.68037 41.6817L6.92384 42.4111C6.90739 42.4277 6.89095 42.4442 6.8745 42.4525C6.86628 42.4608 6.86628 42.4608 6.85806 42.4691C6.79227 42.5271 6.72649 42.6017 6.65248 42.6846C6.18376 43.1239 5.61637 43.4223 5.00786 43.4968Z" fill="#718099"/>
<path d="M2.31069 31.7275C1.68573 31.7275 1.11834 31.3131 0.92921 30.6832C0.312478 28.578 0 26.3733 0 24.152C0 17.0241 3.18234 10.4017 8.7247 5.97579C9.34966 5.47849 10.2542 5.58624 10.7476 6.20786C11.241 6.83777 11.1341 7.74949 10.5173 8.24678C5.65749 12.1257 2.87808 17.9192 2.87808 24.152C2.87808 26.0998 3.14945 28.0226 3.69217 29.8709C3.91419 30.6417 3.47837 31.4457 2.71362 31.6695C2.57383 31.7109 2.44226 31.7275 2.31069 31.7275Z" fill="#718099"/>
<path d="M37.0205 9.08399C36.6915 9.08399 36.3544 8.96795 36.083 8.73588C35.8857 8.57012 35.6883 8.40435 35.491 8.24687C34.866 7.74957 34.7591 6.83786 35.2525 6.20795C35.7459 5.57804 36.6504 5.4703 37.2754 5.96759C37.5056 6.14993 37.7276 6.34057 37.9497 6.5312C38.55 7.05336 38.624 7.96507 38.1059 8.5784C37.8263 8.91822 37.4234 9.08399 37.0205 9.08399Z" fill="#718099"/>
<path d="M43.9198 20.3145C43.2784 20.3145 42.6863 19.8752 42.5218 19.2122C42.2176 18.0021 41.8064 16.8086 41.2884 15.6731C41.1979 15.4659 41.1486 15.2504 41.1568 15.0432C40.9841 14.9188 40.8443 14.7531 40.7374 14.5542C40.1536 13.4518 39.4546 12.3992 38.6734 11.4295C38.1718 10.8079 38.2705 9.89615 38.8872 9.39056C39.504 8.88497 40.4085 8.98443 40.9101 9.60606C41.7982 10.7167 42.5958 11.9185 43.2619 13.1783C43.3853 13.4021 43.4346 13.6507 43.4346 13.8911C43.6319 14.032 43.7882 14.2226 43.8951 14.463C44.4871 15.7643 44.9641 17.1235 45.3095 18.5077C45.4986 19.2868 45.0299 20.0742 44.2651 20.2648C44.15 20.2979 44.0349 20.3145 43.9198 20.3145Z" fill="#718099"/>
<path d="M44.5612 25.1302C43.78 25.1302 43.1386 24.5003 43.1221 23.7129C43.1139 23.456 43.1057 23.199 43.0892 22.9421C43.0399 22.1464 43.6484 21.4585 44.4378 21.4087C45.2272 21.3673 45.9097 21.9723 45.9591 22.768C45.9755 23.0581 45.9838 23.3565 45.992 23.6466C46.0084 24.4505 45.3752 25.1136 44.5858 25.1302C44.5776 25.1302 44.5694 25.1302 44.5612 25.1302Z" fill="#718099"/>
</svg>
