<svg width="14" height="14" viewBox="0 0 14 14" fill="none" xmlns="http://www.w3.org/2000/svg">
<g id="Group 61">
<path id="Combined Shape" d="M13.4346 14C13.3603 14.0003 13.2868 13.9857 13.2182 13.9573C13.1496 13.9289 13.0873 13.8871 13.035 13.8343L9.70059 10.4999C8.56333 11.438 7.11733 11.9188 5.64475 11.8483C4.17217 11.7779 2.77865 11.1613 1.73612 10.1189C0.624501 9.00731 0 7.49962 0 5.92754C0 4.35546 0.624501 2.84776 1.73612 1.73614C2.84774 0.624507 4.35542 0 5.92748 0C7.49955 0 9.00723 0.624507 10.1189 1.73614C11.1612 2.77857 11.7777 4.17194 11.8483 5.6444C11.9188 7.11686 11.4383 8.56279 10.5004 9.70009L13.8348 13.0345C13.9137 13.1137 13.9675 13.2145 13.9892 13.3242C14.0109 13.4339 13.9997 13.5475 13.9569 13.6508C13.9141 13.7541 13.8416 13.8424 13.7487 13.9045C13.6557 13.9667 13.5464 13.9999 13.4346 14ZM5.92807 1.13061C4.97931 1.1305 4.05183 1.41173 3.26291 1.93876C2.47399 2.46578 1.85907 3.21492 1.49591 4.09143C1.13276 4.96794 1.03768 5.93246 1.2227 6.86301C1.40773 7.79356 1.86454 8.64835 2.53537 9.31927C3.2062 9.99019 4.06093 10.4471 4.99145 10.6322C5.92197 10.8174 6.88649 10.7224 7.76304 10.3594C8.63959 9.99632 9.38879 9.38149 9.91591 8.59263C10.443 7.80376 10.7244 6.8763 10.7244 5.92754C10.7228 4.65589 10.217 3.43676 9.31789 2.53751C8.41877 1.63826 7.19971 1.13231 5.92807 1.13061Z" fill="white"/>
</g>
</svg>
