<svg width="46" height="46" viewBox="0 0 46 46" fill="none" xmlns="http://www.w3.org/2000/svg">
<g clip-path="url(#clip0_3972_72482)">
<path d="M2.57434 43.4212C2.57434 43.2383 2.57434 43.0989 2.57434 42.9595C2.57434 38.2027 2.57434 33.4546 2.57434 28.6977C2.57434 27.9833 2.82738 27.6087 3.39452 27.4606C4.01402 27.3038 4.59862 27.6871 4.67715 28.3231C4.6946 28.4712 4.6946 28.628 4.6946 28.7849C4.6946 33.5155 4.6946 38.2549 4.6946 42.9856C4.6946 43.4386 4.6946 43.4386 5.14832 43.4386C5.58458 43.4386 6.01213 43.4386 6.44839 43.4386C6.88466 43.4386 6.88466 43.4386 6.88466 43.0118C6.88466 39.161 6.88466 35.3189 6.88466 31.4682C6.88466 30.7886 6.87593 30.1091 6.89339 29.4296C6.90211 28.9068 7.23367 28.5148 7.72229 28.4189C8.21091 28.3144 8.69081 28.5235 8.87404 28.9765C8.97002 29.203 8.98747 29.4731 8.98747 29.7258C8.99619 34.1167 8.98747 38.5163 8.99619 42.9072C8.99619 43.5432 8.96129 43.4386 9.51971 43.4386C9.99088 43.4474 10.4708 43.4299 10.9419 43.4386C11.1252 43.4386 11.2124 43.3689 11.195 43.186C11.1863 43.0814 11.195 42.9769 11.195 42.8811C11.195 34.5871 11.195 26.2932 11.195 17.9992C11.195 17.8337 11.1863 17.6682 11.2037 17.5027C11.2561 16.9364 11.6923 16.5617 12.2769 16.5705C12.8266 16.5792 13.2454 16.9799 13.2891 17.5288C13.2978 17.6421 13.2978 17.7553 13.2978 17.8686C13.3065 26.2148 13.3152 34.561 13.324 42.8985C13.324 43.064 13.324 43.2208 13.324 43.4125C13.5159 43.4125 13.6555 43.4125 13.7951 43.4125C23.9602 43.4125 34.1164 43.4125 44.2815 43.4125C44.7963 43.4125 45.2325 43.5432 45.4594 44.0398C45.7822 44.7455 45.2936 45.5121 44.4996 45.5557C44.4036 45.5644 44.3164 45.5557 44.2204 45.5557C33.6889 45.5557 23.1574 45.5557 12.6259 45.5557C9.76402 45.5557 6.89339 45.547 4.03147 45.547C3.21129 45.547 2.38238 45.5557 1.5622 45.5557C1.03868 45.5557 0.646041 45.2682 0.497711 44.8152C0.358105 44.3796 0.462809 43.9091 0.837999 43.6564C1.04741 43.5171 1.32662 43.4474 1.57965 43.4212C1.89377 43.3951 2.2166 43.4212 2.57434 43.4212Z" fill="#E1C372" stroke="#E1C372" stroke-miterlimit="10"/>
<path d="M27.8775 0.435547C31.6207 0.435547 35.3551 0.435547 39.0983 0.435547C41.5414 0.435547 43.4959 2.22153 43.7402 4.6435C43.7489 4.73933 43.7576 4.82646 43.7576 4.92229C43.7576 12.1272 43.7576 19.3234 43.7576 26.5283C43.7576 27.0946 43.461 27.4954 42.9723 27.5999C42.283 27.748 41.6897 27.295 41.6548 26.5893C41.6461 26.4935 41.6548 26.4064 41.6548 26.3105C41.6548 19.2799 41.6374 12.2579 41.6635 5.22721C41.6723 3.68517 40.5205 2.52646 38.9674 2.53517C31.4985 2.55259 24.0296 2.54388 16.552 2.54388C16.4211 2.54388 16.2815 2.54388 16.1506 2.54388C15.5748 2.51774 15.1821 2.1257 15.1647 1.56812C15.1385 0.958274 15.4962 0.522668 16.0808 0.452971C16.2117 0.435547 16.3513 0.444259 16.4822 0.444259C20.269 0.435547 24.0732 0.435547 27.8775 0.435547Z" fill="#E1C372" stroke="#E1C372" stroke-miterlimit="10"/>
<path d="M15.1647 11.1951C18.585 11.1951 22.0053 11.1951 25.4257 11.1951C26.0452 11.1951 26.4116 11.4913 26.5425 12.0837C26.6559 12.6239 26.2458 13.2076 25.7049 13.2773C25.5216 13.3034 25.3384 13.3034 25.1464 13.3034C18.5501 13.3034 11.9537 13.3034 5.3661 13.3034C5.08689 13.3034 4.80768 13.3121 4.53719 13.3731C3.33309 13.6432 2.54781 14.6364 2.54781 15.8996C2.54781 19.3845 2.54781 22.878 2.54781 26.3629C2.54781 26.5197 2.55654 26.6765 2.52164 26.8246C2.42566 27.3125 1.92831 27.6871 1.43097 27.661C0.942349 27.6348 0.497357 27.2167 0.445005 26.7201C0.436279 26.5894 0.436279 26.4761 0.436279 26.3629C0.436279 22.8606 0.436279 19.367 0.436279 15.8648C0.436279 13.6257 1.89341 11.7962 4.07475 11.2996C4.44121 11.2125 4.83385 11.1951 5.20904 11.1951C8.52467 11.1951 11.849 11.1951 15.1647 11.1951Z" fill="#E1C372" stroke="#E1C372" stroke-miterlimit="10"/>
<path d="M7.96615 0.435547C10.5227 0.435547 12.5819 2.51774 12.5819 5.08782C12.5819 7.67532 10.5227 9.71395 7.9138 9.70524C5.366 9.69653 3.2981 7.62304 3.2981 5.07911C3.2981 2.50903 5.38345 0.435547 7.96615 0.435547ZM5.41835 5.08782C5.41835 6.49918 6.5352 7.61433 7.9487 7.61433C9.35348 7.61433 10.479 6.48176 10.4703 5.07911C10.4703 3.66774 9.33603 2.53517 7.93998 2.54388C6.54392 2.55259 5.41835 3.67646 5.41835 5.08782Z" fill="#E1C372" stroke="#E1C372" stroke-miterlimit="10"/>
<path d="M40.0232 31.2241C38.5835 31.2241 37.1351 31.2241 35.6954 31.2241C34.884 31.2241 34.4652 30.8059 34.4652 29.987C34.4652 29.8737 34.4652 29.7605 34.4652 29.6472C34.4652 29.0722 34.1074 28.7063 33.5228 28.6976C33.1302 28.6889 32.7375 28.6976 32.3449 28.6976C31.7428 28.6889 31.2979 28.2446 31.2979 27.6434C31.2979 27.0423 31.7167 26.6067 32.3274 26.6154C32.9469 26.6241 33.5752 26.5718 34.1772 26.6764C35.3639 26.8855 36.1317 27.6347 36.472 28.7934C36.5418 29.0374 36.6465 29.1071 36.8995 29.1071C38.758 29.0983 40.6078 29.1071 42.4663 29.0983C43.1294 29.0983 43.7838 29.0722 44.4469 29.0809C44.9617 29.0896 45.3369 29.351 45.4853 29.7605C45.651 30.2222 45.5551 30.6752 45.1537 30.9714C44.953 31.1196 44.6651 31.2067 44.412 31.2067C42.9462 31.2415 41.4891 31.2241 40.0232 31.2241Z" fill="#E1C372" stroke="#E1C372" stroke-miterlimit="10"/>
<path d="M23.9075 31.2242C21.8396 31.2242 19.7717 31.2242 17.6951 31.2242C16.9621 31.2242 16.5259 30.7538 16.5782 30.0219C16.6044 29.6125 16.901 29.2553 17.2937 29.1595C17.4507 29.1246 17.6165 29.1072 17.7823 29.1072C21.8483 29.1072 25.9143 29.1072 29.9803 29.1072C30.4079 29.1072 30.7831 29.1943 31.0274 29.5776C31.2542 29.9348 31.2804 30.3095 31.071 30.6841C30.8616 31.0587 30.53 31.2329 30.1025 31.2329C28.2178 31.2329 26.3331 31.2329 24.4485 31.2329C24.2827 31.2242 24.0995 31.2242 23.9075 31.2242Z" fill="#E1C372" stroke="#E1C372" stroke-miterlimit="10"/>
</g>
<defs>
<clipPath id="clip0_3972_72482">
<rect width="46" height="46" fill="white"/>
</clipPath>
</defs>
</svg>
