<svg width="60" height="46" viewBox="0 0 60 46" fill="none" xmlns="http://www.w3.org/2000/svg">
<path d="M29.8354 7.30458H44.5923V10.2492C44.3996 10.0052 44.1264 9.84251 43.8212 9.7937C43.4998 9.74489 43.1865 9.82624 42.9295 10.0215C42.6724 10.2167 42.5037 10.5014 42.4555 10.8268C42.4073 11.1521 42.4877 11.4694 42.6804 11.7297L44.8333 14.6581L44.9378 14.7557C44.9619 14.7882 45.0101 14.8452 45.0824 14.9021C45.1306 14.9428 45.1788 14.959 45.2109 14.9753C45.2511 14.9997 45.2832 15.016 45.3314 15.0323C45.5001 15.1055 45.6527 15.138 45.8054 15.138C45.958 15.138 46.1106 15.1055 46.2793 15.0323C46.3195 15.016 46.3516 14.9997 46.3998 14.9753L46.5284 14.9021C46.6007 14.8533 46.6408 14.7882 46.6408 14.7801L48.9222 11.7297C49.115 11.4694 49.1954 11.144 49.1472 10.8268C49.099 10.5095 48.9303 10.2167 48.6732 10.0215C48.1511 9.63101 47.404 9.72863 47.0023 10.2492V6.08442C47.0023 5.40926 46.4641 4.86426 45.7973 4.86426H29.8354C29.1686 4.86426 28.6304 5.40926 28.6304 6.08442C28.6304 6.75957 29.1686 7.30458 29.8354 7.30458Z" fill="#E1C372"/>
<path d="M30.221 38.4838H15.464V35.5392C15.6568 35.7832 15.9299 35.9459 16.2352 35.9947C16.5565 36.0435 16.8698 35.9621 17.1268 35.7669C17.3839 35.5717 17.5526 35.287 17.6008 34.9616C17.649 34.6362 17.5687 34.319 17.3759 34.0587L15.223 31.1384L15.1185 31.0327C15.0944 31.0002 15.0462 30.9432 14.9739 30.8863C14.9177 30.8456 14.8695 30.8212 14.8454 30.8131C14.8053 30.7887 14.7651 30.7643 14.7249 30.748C14.3956 30.6016 14.1144 30.6016 13.777 30.748C13.7368 30.7643 13.7047 30.7805 13.6565 30.8049L13.528 30.8781C13.4557 30.9351 13.4075 30.992 13.4155 31.0002L11.126 34.0506C10.9332 34.3109 10.8529 34.6362 10.9011 34.9535C10.9493 35.2707 11.118 35.5636 11.3751 35.7588C11.8972 36.1492 12.6363 36.0516 13.046 35.531V39.6958C13.046 40.371 13.5842 40.916 14.251 40.916H30.2129C30.8797 40.916 31.4179 40.371 31.4179 39.6958C31.4179 39.0207 30.8877 38.4838 30.221 38.4838Z" fill="#E1C372"/>
<path d="M28.5259 14.4386C28.5259 6.47498 22.1315 0 14.2589 0C11.7044 0 9.19802 0.691424 7.01299 2.00106C6.44263 2.34271 6.25787 3.09107 6.59526 3.66861C6.93266 4.24615 7.67171 4.44138 8.24207 4.09973C10.0576 3.01786 12.1382 2.44032 14.2589 2.44032C20.798 2.44032 26.1159 7.82529 26.1159 14.4386C26.1159 21.0518 20.798 26.4368 14.2589 26.4368C7.72794 26.4449 2.40996 21.0599 2.40996 14.4386C2.40996 13.4868 2.52243 12.5432 2.73932 11.6322C2.89195 10.9814 2.49029 10.3225 1.84764 10.168C1.19695 10.0134 0.546258 10.412 0.393627 11.0709C0.128531 12.1691 0 13.2997 0 14.4386C0 22.4021 6.39443 28.8771 14.2589 28.8771C22.1315 28.8852 28.5259 22.4021 28.5259 14.4386Z" fill="#E1C372"/>
<path d="M3.72746 7.88217C4.51729 7.88217 5.15757 7.23391 5.15757 6.43425C5.15757 5.63458 4.51729 4.98633 3.72746 4.98633C2.93764 4.98633 2.29736 5.63458 2.29736 6.43425C2.29736 7.23391 2.93764 7.88217 3.72746 7.88217Z" fill="#E1C372"/>
<path d="M45.733 17.1147C37.8685 17.1147 31.4661 23.5897 31.4661 31.5533C31.4661 39.5169 37.8605 46 45.733 46C48.2876 46 50.794 45.3086 52.979 43.9989C53.5493 43.6573 53.7421 42.9089 53.4048 42.3314C53.0674 41.7538 52.3283 41.5586 51.7579 41.9002C49.9424 42.9903 47.8618 43.5597 45.7411 43.5597C39.202 43.5597 33.8841 38.1747 33.8841 31.5533C33.8841 24.9319 39.202 19.5551 45.7411 19.5551C52.2801 19.5551 57.5901 24.94 57.5901 31.5533C57.5901 32.505 57.4776 33.4486 57.2607 34.3597C57.1081 35.0185 57.5017 35.6693 58.1524 35.832C58.795 35.9865 59.4457 35.588 59.6064 34.9291C59.8634 33.8309 60 32.6921 60 31.5533C59.992 23.5897 53.5975 17.1147 45.733 17.1147Z" fill="#E1C372"/>
<path d="M56.2729 41.0135C57.0627 41.0135 57.703 40.3653 57.703 39.5656C57.703 38.7659 57.0627 38.1177 56.2729 38.1177C55.4831 38.1177 54.8428 38.7659 54.8428 39.5656C54.8428 40.3653 55.4831 41.0135 56.2729 41.0135Z" fill="#E1C372"/>
<path d="M8.92481 16.3989C8.15362 17.4238 7.69573 18.5707 7.57523 19.8072C7.4949 20.6287 8.03313 20.7996 8.27412 20.8321C8.30626 20.8402 8.35445 20.8402 8.41069 20.8402C8.67578 20.8402 9.14171 20.7345 9.25417 20.0024L9.27827 19.8234C9.28631 19.7258 9.30237 19.6363 9.31844 19.5469C9.84863 17.0415 11.9694 15.3414 14.4999 15.4227C16.9982 15.4959 19.0145 17.3506 19.4001 19.9292C19.4965 20.5799 19.8259 20.889 20.348 20.8402C20.5971 20.8158 20.7899 20.7264 20.9184 20.5555C21.1192 20.3115 21.1112 19.9861 21.0791 19.6608C21.071 19.5957 21.071 19.5306 21.055 19.4655C20.7256 17.6516 19.8901 16.2199 18.5647 15.2112C18.1309 14.8777 17.6489 14.6012 17.191 14.3409C17.1588 14.3165 17.1187 14.3002 17.0866 14.2758C18.0666 13.4949 18.6771 12.4374 18.8378 11.2498C19.0226 9.88321 18.5968 8.46782 17.6971 7.46729C16.8616 6.53997 15.7129 6.01937 14.4517 5.98683C13.1985 5.9543 11.9614 6.45863 11.0697 7.36155C10.1539 8.28887 9.67993 9.71239 9.8165 11.079C9.90486 11.9737 10.2985 13.2102 11.5838 14.2758C10.4993 14.772 9.60763 15.4878 8.92481 16.3989ZM12.3229 12.657C11.7766 12.1039 11.4713 11.3637 11.4713 10.5746C11.4713 9.80186 11.7686 9.0779 12.3068 8.54103C12.845 8.00416 13.568 7.70319 14.3392 7.70319C15.1023 7.70319 15.8093 8.00416 16.3395 8.54103C16.8777 9.08604 17.1749 9.81813 17.1669 10.6072C17.1588 12.2015 15.8735 13.4949 14.299 13.4949C13.56 13.4949 12.8611 13.1939 12.3229 12.657Z" fill="#E1C372"/>
<path d="M38.9369 37.1904C38.8084 37.9469 38.961 38.134 39.7081 38.134C41.7726 38.134 43.8291 38.134 45.8937 38.134C47.9903 38.134 50.087 38.134 52.1836 38.134C52.7701 38.134 52.9548 37.9307 52.8906 37.4101C52.6576 35.6042 51.9105 34.0506 50.5127 32.8955C49.7898 32.2935 48.9463 31.8543 48.1831 31.3581C50.2316 29.7719 50.9224 27.9335 50.2155 25.8267C49.5729 23.9232 47.8538 22.6787 45.8776 22.6868C43.9094 22.6949 42.1823 23.9639 41.5557 25.8592C41.0336 27.4454 41.2505 29.8207 43.7247 31.4394C43.5721 31.5045 43.4757 31.5452 43.3873 31.5858C40.897 32.6433 39.3948 34.4898 38.9369 37.1904Z" fill="#E1C372"/>
</svg>
