<svg width="20" height="20" viewBox="0 0 20 20" fill="none" xmlns="http://www.w3.org/2000/svg">
<g clip-path="url(#clip0_2372_186015)">
<rect width="20" height="20" fill="white"/>
<path d="M10 20C8.02219 20 6.08879 19.4135 4.4443 18.3147C2.79981 17.2159 1.51809 15.6541 0.761209 13.8268C0.00433284 11.9996 -0.1937 9.98891 0.192152 8.0491C0.578004 6.10929 1.53041 4.32746 2.92894 2.92894C4.32746 1.53041 6.10929 0.578004 8.0491 0.192152C9.98891 -0.1937 11.9996 0.00433284 13.8268 0.761209C15.6541 1.51809 17.2159 2.79981 18.3147 4.4443C19.4135 6.08879 20 8.02219 20 10C19.9971 12.6513 18.9426 15.1931 17.0679 17.0679C15.1931 18.9426 12.6513 19.9971 10 20ZM10 13C9.86966 13 9.74057 13.0255 9.62 13.075C9.49895 13.1263 9.3874 13.1977 9.29 13.286C9.20172 13.3829 9.13069 13.4941 9.08 13.615C9.02728 13.7348 9.00005 13.8642 9.00005 13.995C9.00005 14.1258 9.02728 14.2553 9.08 14.375C9.12801 14.4972 9.19934 14.609 9.29 14.704C9.3874 14.7923 9.49895 14.8637 9.62 14.915C9.73994 14.9678 9.86902 14.9966 10 15C10.1307 14.9986 10.2598 14.9714 10.38 14.92C10.5011 14.8688 10.6127 14.7975 10.71 14.709C10.8007 14.614 10.872 14.5022 10.92 14.38C10.9727 14.2603 11 14.1308 11 14C11 13.8692 10.9727 13.7398 10.92 13.62C10.8693 13.4991 10.7983 13.3879 10.71 13.291C10.6127 13.2025 10.5011 13.1312 10.38 13.08C10.2598 13.0286 10.1307 13.0014 10 13ZM10 5.25C9.8019 5.25259 9.61263 5.33244 9.47254 5.47254C9.33244 5.61263 9.25259 5.8019 9.25 6V11C9.25233 11.1983 9.33207 11.3878 9.47219 11.5281C9.61231 11.6684 9.80173 11.7484 10 11.751C10.199 11.7507 10.3898 11.6715 10.5304 11.5307C10.671 11.3899 10.75 11.199 10.75 11V6C10.7497 5.80117 10.6706 5.61056 10.53 5.46997C10.3894 5.32937 10.1988 5.25027 10 5.25Z" fill="#FEC03F"/>
</g>
<defs>
<clipPath id="clip0_2372_186015">
<rect width="20" height="20" fill="white"/>
</clipPath>
</defs>
</svg>
