<svg width="12" height="12" viewBox="0 0 12 12" fill="none" xmlns="http://www.w3.org/2000/svg">
<g id="Group 3 48" clip-path="url(#clip0_2697_154858)">
<g id="Group 2">
<path id="Vector" d="M5.99944 11.7142C4.86927 11.7142 3.76447 11.3791 2.82476 10.7512C1.88505 10.1233 1.15263 9.23085 0.720133 8.1867C0.287632 7.14255 0.17447 5.99359 0.394957 4.88513C0.615444 3.77667 1.15968 2.75848 1.95883 1.95932C2.75799 1.16017 3.77618 0.615933 4.88464 0.395446C5.99311 0.174959 7.14206 0.28812 8.18621 0.720621C9.23036 1.15312 10.1228 1.88554 10.7507 2.82525C11.3786 3.76496 11.7137 4.86975 11.7137 5.99993C11.7137 7.51546 11.1117 8.96891 10.0401 10.0405C8.96842 11.1122 7.51497 11.7142 5.99944 11.7142Z" stroke="white" stroke-linecap="round" stroke-linejoin="round"/>
<path id="Vector_2" d="M3.71349 0.856934H4.28492C3.17065 4.19497 3.17065 7.80461 4.28492 11.1426H3.71349" stroke="white" stroke-linecap="round" stroke-linejoin="round"/>
<path id="Vector_3" d="M7.71484 0.856934C8.82911 4.19497 8.82911 7.80461 7.71484 11.1426" stroke="white" stroke-linecap="round" stroke-linejoin="round"/>
<path id="Vector_4" d="M0.855469 8.28578V7.71436C4.19351 8.82862 7.80314 8.82862 11.1412 7.71436V8.28578" stroke="white" stroke-linecap="round" stroke-linejoin="round"/>
<path id="Vector_5" d="M0.855469 4.28541C4.19351 3.17114 7.80314 3.17114 11.1412 4.28541" stroke="white" stroke-linecap="round" stroke-linejoin="round"/>
</g>
</g>
<defs>
<clipPath id="clip0_2697_154858">
<rect width="12" height="12" fill="white"/>
</clipPath>
</defs>
</svg>
