<svg width="16" height="16" viewBox="0 0 16 16" fill="none" xmlns="http://www.w3.org/2000/svg">
<path d="M16 2.13289V14.9336C16 15.5201 15.4858 16 14.8574 16H1.1426C0.514171 16 0 15.5201 0 14.9336V2.13289C0 1.54634 0.514171 1.06644 1.1426 1.06644H3.42781V0H5.71301V1.06644H10.2834V0H12.5686V1.06644H14.8574C15.4858 1.06644 16 1.54634 16 2.13289ZM13.7112 13.8638V9.598H9.14082V13.8638H13.7112ZM14.8538 2.13289H12.5686V3.19933H10.2834V2.13289H5.71301V3.19933H3.42781V2.13289H1.14617L1.1426 2.13622V5.33222H14.8574V2.13622L14.8538 2.13289ZM1.1426 6.39867V14.9302L1.14617 14.9336L14.8574 14.9302V6.39867H1.1426Z" fill="#B1B7BB"/>
</svg>
