<svg width="20" height="20" viewBox="0 0 20 20" fill="none" xmlns="http://www.w3.org/2000/svg">
<g id="Group 922">
<circle id="Ellipse 17" cx="10" cy="10" r="10" fill="#EE4F64"/>
<g id="Group 791">
<g id="Group 915">
<path id="Vector" d="M12.8317 13.7986L6.17907 7.14823C6.0602 7.01785 5.99614 6.84671 6.00018 6.67036C6.00422 6.494 6.07607 6.32597 6.20079 6.20118C6.32551 6.07638 6.49352 6.0044 6.66994 6.0002C6.84635 5.99599 7.01761 6.05987 7.14814 6.17858L13.8008 12.8289C13.9284 12.958 14 13.1322 14 13.3138C14 13.4953 13.9284 13.6695 13.8008 13.7986C13.7372 13.8624 13.6616 13.9131 13.5784 13.9476C13.4952 13.9822 13.4059 14 13.3158 14C13.2257 14 13.1364 13.9822 13.0532 13.9476C12.97 13.9131 12.8953 13.8624 12.8317 13.7986Z"/>
<path id="Vector_2" d="M6.19906 13.7987C6.07152 13.6697 6 13.4956 6 13.3142C6 13.1328 6.07152 12.9588 6.19906 12.8297L12.8467 6.18401C12.9767 6.0629 13.1486 5.99697 13.3263 6.00011C13.504 6.00324 13.6735 6.07519 13.7991 6.20081C13.9248 6.32642 13.9968 6.49589 13.9999 6.6735C14.003 6.85112 13.9371 7.02302 13.8159 7.15299L7.16832 13.7987C7.10598 13.8641 7.03068 13.9158 6.94723 13.9504C6.86378 13.985 6.77402 14.0019 6.68369 13.9998C6.5936 14.0002 6.50435 13.9825 6.42114 13.948C6.33794 13.9135 6.26244 13.8627 6.19906 13.7987Z"/>
</g>
</g>
</g>
</svg>
