<svg width="50" height="46" viewBox="0 0 50 46" fill="none" xmlns="http://www.w3.org/2000/svg">
<g clip-path="url(#clip0_3972_72468)">
<path d="M39.1211 27.3566C38.7741 26.9729 38.3084 26.5162 37.7332 26.0046C37.1762 25.5205 36.7471 25.1002 36.4549 24.7257C36.1627 24.3512 35.9709 23.9309 35.8979 23.4468H33.2408C33.2408 24.004 33.3321 24.4882 33.5239 24.8993C33.7065 25.3103 33.9439 25.6666 34.2178 25.9589C34.5009 26.2513 34.857 26.5984 35.3135 26.9821L35.7061 27.3292C36.1536 27.7312 36.5097 28.0783 36.7745 28.3523C37.0393 28.6355 37.2675 28.9735 37.4593 29.3755C37.651 29.7774 37.7515 30.2342 37.7515 30.7457C37.7515 31.6501 37.5232 32.3535 37.0758 32.8651C36.6284 33.3767 35.9709 33.6324 35.0944 33.6324C34.2452 33.6324 33.5878 33.3675 33.1404 32.8286C32.6929 32.2896 32.4647 31.504 32.4647 30.4626C32.4647 29.9693 32.5468 29.4211 32.7203 28.8365H30.1637C30.0541 29.1745 29.9719 29.5034 29.9171 29.8048C29.8624 30.1063 29.835 30.4352 29.835 30.7914C29.835 31.6593 30.0267 32.4723 30.4193 33.2214C30.8028 33.9704 31.3963 34.5825 32.1907 35.0393C32.9851 35.496 33.953 35.7244 35.1035 35.7244C36.2175 35.7244 37.1762 35.496 37.9797 35.0301C38.7741 34.5642 39.3768 33.9522 39.7785 33.2031C40.1803 32.454 40.3812 31.6318 40.3812 30.7457C40.3812 29.9967 40.2533 29.3481 40.0068 28.7817C39.7694 28.2244 39.4681 27.7494 39.1211 27.3566Z" fill="#EB9987"/>
<path d="M6.75504 8.61002H6.76417C7.659 8.60088 8.37121 7.89748 8.37121 6.9931C8.37121 6.08872 7.67726 5.37618 6.78243 5.35791C6.36241 5.36705 5.915 5.53148 5.60455 5.84207C5.29409 6.15267 5.12061 6.58202 5.12974 7.0205C5.148 7.91575 5.86021 8.61002 6.75504 8.61002Z" fill="#EB9987"/>
<path d="M43.6201 15.7338H32.1536C32.2885 12.2862 31.3779 9.16505 29.4388 6.46226C26.6312 2.53777 22.7444 0.370516 17.8964 0.0358049C14.9877 -0.165022 12.1885 0.479297 9.56637 1.96039C9.16168 2.18632 8.88345 2.61308 8.76541 2.93942C8.55463 3.4917 8.75698 4.10254 9.27971 4.49583C9.80245 4.88912 10.4095 4.89748 11.0671 4.53767C13.2845 3.32434 15.6874 2.82227 18.2084 3.05657C21.7242 3.38292 24.9112 5.24893 26.96 8.16928C29.0088 11.0813 29.658 14.6878 28.7558 18.0684C27.7019 22.0096 24.7763 25.1391 20.9232 26.4445C17.028 27.7666 12.8967 27.0888 9.59167 24.5785C9.01835 24.1434 8.41973 24.0262 7.77052 24.227C7.50072 24.3107 7.23093 24.3777 6.9527 24.453C7.02858 24.2773 7.11289 24.1099 7.1972 23.9509C7.56817 23.2564 7.50916 22.5786 7.02015 21.8924C5.62899 19.926 4.90391 17.6918 4.86175 15.2401C4.84489 14.2108 4.97136 13.1816 5.24959 12.1105L5.39292 11.5666H5.38449C5.43508 11.4243 5.46037 11.2654 5.46037 11.1064C5.46037 10.2696 4.81117 9.60017 3.96804 9.58344C3.58021 9.58344 3.15865 9.74243 2.86355 10.0353C2.71179 10.1943 2.59375 10.3784 2.51787 10.5792V10.5876C2.48415 10.688 2.45885 10.7884 2.44199 10.8888L2.35768 11.2403C2.34082 11.2821 2.33239 11.3323 2.31552 11.3825C2.18906 11.9348 2.08788 12.5038 1.99514 13.0644C1.95298 13.3071 1.91083 13.5581 1.86867 13.8008L1.85181 16.286L1.91926 16.445C2.13004 18.8298 2.92257 21.1059 4.23784 23.1392C3.90059 23.9174 3.54648 24.6873 3.18394 25.4571L2.9563 25.9508C2.59375 26.7374 2.84669 27.298 3.11649 27.6244C3.40315 27.9674 3.91746 28.3273 4.7943 28.093C5.23273 27.9758 5.66272 27.867 6.10114 27.7499C6.73348 27.5909 7.35739 27.4319 7.9813 27.2562C8.08248 27.2311 8.09934 27.2227 8.21738 27.3064C11.2863 29.4318 14.7094 30.3355 18.3854 30.0175V36.7369C18.3854 39.448 20.2234 41.2638 22.9467 41.2722L25.7543 41.2806C28.4017 41.2889 31.1334 41.2973 33.8314 41.2555C34.6493 41.2471 35.2226 41.4479 35.8128 41.9584C36.9341 42.9207 38.1061 43.8495 39.2358 44.7532C39.6996 45.1214 40.1633 45.4896 40.627 45.8577L40.7956 46H41.7062L41.8411 45.9247C42.4987 45.5732 42.8191 44.9875 42.7938 44.1758C42.7685 43.4562 42.777 42.7282 42.777 42.0086V41.2889H43.5864C46.3181 41.2889 48.1476 39.4648 48.1476 36.7536C48.1476 31.2643 48.1476 25.7751 48.1476 20.2858C48.1814 17.5579 46.3434 15.7421 43.6201 15.7338ZM45.1714 20.244V36.762C45.1714 37.7828 44.674 38.2849 43.6454 38.2849H42.8275C42.347 38.2849 41.8748 38.2849 41.3942 38.2849C40.4162 38.2933 39.8092 38.9041 39.8007 39.8832C39.8007 40.3601 39.8007 40.8455 39.8007 41.3391L39.6574 41.222C38.6457 40.402 37.6592 39.607 36.6896 38.8037C36.2512 38.4439 35.7875 38.2765 35.2141 38.2765C35.2141 38.2765 35.2141 38.2765 35.2057 38.2765C31.8079 38.2849 28.4102 38.2849 25.0124 38.2849H22.972C21.9097 38.2849 21.4207 37.7996 21.4207 36.7452V31.5321V29.4569C26.7155 27.6662 30.1807 24.0513 31.7236 18.7211H35.661H43.6454C44.6656 18.7294 45.1714 19.2231 45.1714 20.244Z" fill="#EB9987"/>
<path d="M12.6249 17.6607C12.6249 16.6748 12.8009 15.7874 13.1531 14.9986C13.5052 14.2098 14.0193 13.576 14.6954 13.0971C15.3715 12.6041 16.1673 12.2942 17.0829 12.1674V11.3012C17.0829 10.8504 16.9843 10.5194 16.7871 10.3082C16.604 10.0828 16.3364 9.89264 15.9842 9.7377C15.6039 9.56867 15.3011 9.40669 15.0757 9.25175C14.8504 9.08273 14.6532 8.82919 14.4841 8.49114C14.3292 8.139 14.2517 7.66714 14.2517 7.07556H16.5124C16.5124 7.37135 16.5688 7.62489 16.6815 7.83617C16.8082 8.03336 16.9561 8.19534 17.1252 8.32211C17.3083 8.44888 17.5407 8.58974 17.8224 8.74468C18.1886 8.94187 18.4774 9.12498 18.6886 9.29401C18.8999 9.44895 19.083 9.67431 19.238 9.97011C19.3929 10.2518 19.4704 10.618 19.4704 11.0688V12.2942C20.2451 12.5055 20.9071 12.8647 21.4564 13.3717C22.0198 13.8647 22.4494 14.4845 22.7452 15.231C23.041 15.9634 23.1889 16.7734 23.1889 17.6607C23.1889 18.7453 22.9776 19.7102 22.5551 20.5553C22.1325 21.4004 21.5198 22.0554 20.7169 22.5202C19.9281 22.985 18.9915 23.2174 17.9069 23.2174C16.8223 23.2174 15.8786 22.985 15.0757 22.5202C14.2869 22.0554 13.6813 21.4075 13.2587 20.5764C12.8362 19.7313 12.6249 18.7594 12.6249 17.6607ZM20.7803 17.6607C20.7803 17.0269 20.6747 16.4353 20.4634 15.886C20.2521 15.3226 19.9281 14.8718 19.4915 14.5338C19.0689 14.1816 18.5337 14.0056 17.8858 14.0056C17.266 14.0056 16.7378 14.1816 16.3012 14.5338C15.8786 14.8718 15.5617 15.3226 15.3504 15.886C15.1391 16.4494 15.0335 17.041 15.0335 17.6607C15.0335 18.2664 15.1391 18.851 15.3504 19.4144C15.5617 19.9778 15.8786 20.4356 16.3012 20.7877C16.7378 21.1398 17.2731 21.3159 17.9069 21.3159C18.5407 21.3159 19.0689 21.1398 19.4915 20.7877C19.9281 20.4356 20.2521 19.9848 20.4634 19.4355C20.6747 18.8721 20.7803 18.2805 20.7803 17.6607Z" fill="#EB9987"/>
</g>
<defs>
<clipPath id="clip0_3972_72468">
<rect width="50" height="46" fill="white"/>
</clipPath>
</defs>
</svg>
