<svg width="16" height="18" viewBox="0 0 16 18" fill="none" xmlns="http://www.w3.org/2000/svg">
<path d="M2.79012 6.54324V8.84117C2.7622 9.41438 2.59221 9.97438 2.29291 10.4791L1.28976 11.9978C1.13995 12.1986 1.04488 12.4291 1.01245 12.6701C0.98002 12.9112 1.01117 13.1558 1.1033 13.3836C1.19544 13.6115 1.3459 13.816 1.54218 13.9801C1.73847 14.1443 1.97491 14.2634 2.23185 14.3276C5.98811 15.4726 10.0511 15.4726 13.8073 14.3276C14.0554 14.2521 14.2818 14.1268 14.4696 13.9609C14.6574 13.795 14.8019 13.5927 14.8923 13.369C14.9828 13.1453 15.0169 12.9059 14.9922 12.6686C14.9674 12.4312 14.8845 12.202 14.7494 11.9978L13.7463 10.4791C13.4536 9.97241 13.2869 9.41321 13.2578 8.84117V6.54324C13.2578 5.27795 12.7064 4.06449 11.7248 3.16979C10.7433 2.2751 9.41205 1.77246 8.02395 1.77246C6.63585 1.77246 5.30461 2.2751 4.32307 3.16979C3.34154 4.06449 2.79012 5.27795 2.79012 6.54324Z" stroke="#626262" stroke-miterlimit="10" stroke-linecap="round"/>
<path d="M8.80027 1.84302C8.00003 1.74621 7.1865 1.80034 6.41016 2.00205C6.53765 1.70663 6.75978 1.45304 7.04761 1.27431C7.33545 1.09559 7.67565 1 8.02392 1C8.37219 1 8.71239 1.09559 9.00023 1.27431C9.28806 1.45304 9.51019 1.70663 9.63768 2.00205C9.36372 1.92849 9.08367 1.8753 8.80027 1.84302Z" stroke="#626262" stroke-miterlimit="10" stroke-linecap="round" stroke-linejoin="round"/>
<path d="M10.642 14.6143C10.64 15.2463 10.3636 15.852 9.87327 16.2989C9.38295 16.7458 8.71853 16.9978 8.02512 16.9996C7.33151 16.9981 6.66672 16.7466 6.17583 16.2999C5.68581 15.8525 5.40986 15.2465 5.4082 14.6143" stroke="#626262" stroke-miterlimit="10"/>
</svg>
