<svg viewBox="0 0 60 26" xmlns="http://www.w3.org/2000/svg" class="evet-logo">
  <g clip-path="url(#clip0_2586_158851)">
    <path
      d="M55.8232 5.80512H59.9999L59.4326 9.35927H55.2559L53.7202 18.9373C53.6224 19.557 53.6126 20.0308 53.7006 20.3407C53.7887 20.6505 53.9843 20.8693 54.2973 20.9968C54.6103 21.1244 55.0994 21.1882 55.7743 21.1882C56.5275 21.1882 57.1242 21.1427 57.5643 21.0424L56.8992 25.198C56.0775 25.3256 54.9429 25.3894 53.4952 25.3894C51.2455 25.3894 49.6511 25.034 48.7218 24.3232C47.7926 23.6123 47.46 22.4094 47.7339 20.7143L49.5435 9.3775H46.0906L46.6579 5.82334H50.1108L51.0498 0H56.7525L55.8232 5.80512Z"
      fill="white"
    />
    <path
      d="M7.49258 9.55972C8.36313 10.5531 7.51214 12.558 5.58518 14.0252C3.65821 15.4924 0.508553 14.891 0.508553 14.891C0.508553 14.891 0.48899 11.8927 2.41595 10.4255C4.34292 8.95825 6.62202 8.56638 7.49258 9.55972Z"
      fill="white"
    />
    <path
      d="M23.9559 5.32209L18.6152 19.1013L16.5611 4.93933H8.96082C9.80204 5.23095 10.5454 5.69573 11.1225 6.35188C13.3234 8.85801 12.2572 13.0592 8.74563 15.7385C8.29568 16.0757 7.79682 16.34 7.26862 16.5313C7.26862 16.5313 7.23927 16.5404 7.19036 16.5587C7.03386 16.6134 6.86757 16.668 6.70129 16.7045C5.51772 17.0599 2.70063 17.7981 0.77367 17.5976L0.382408 17.7434C0.0400537 18.1808 -0.61531 19.4111 1.35078 20.6323C3.81573 22.1633 10.7998 20.2495 10.7998 20.2495V24.8426C9.84116 25.3803 7.79682 25.7539 5.8992 25.9909H21.892L30.5193 5.32209H23.9559Z"
      fill="white"
    />
    <path
      d="M34.6365 20.6415C32.1716 19.1105 33.8149 17.5795 33.8149 17.5795C33.8149 17.5795 37.1015 18.7277 41.6206 16.0484L41.7868 15.9209V15.9117C41.8651 15.8571 41.9433 15.8115 42.0216 15.7477C45.5332 13.0684 46.5994 8.85811 44.3985 6.36109C42.3542 4.03721 38.2264 4.00076 34.8419 6.14237V6.13326C34.8419 6.13326 34.8028 6.15148 34.7441 6.19705C34.7246 6.20616 34.705 6.22439 34.6854 6.2335C34.5778 6.30641 34.4213 6.41577 34.2159 6.56158C34.1572 6.59803 34.0985 6.63448 34.0496 6.68005C34.0105 6.70739 33.9812 6.73473 33.9518 6.76207C32.3379 8.01058 28.9926 11.0726 28.0731 15.6566C26.8406 21.7807 30.9489 24.8427 35.8788 25.6082C40.8087 26.3737 44.0953 24.8427 44.0953 24.8427V20.2496C44.0855 20.2587 37.1015 22.1725 34.6365 20.6415ZM35.7027 10.4256C37.6297 8.94924 39.9088 8.56649 40.7793 9.55983C41.6499 10.5532 40.7989 12.5581 38.8719 14.0253C36.945 15.5016 33.7953 14.8911 33.7953 14.8911C33.7953 14.8911 33.766 11.8928 35.7027 10.4256Z"
      fill="white"
    />
  </g>
  <defs>
    <clipPath id="clip0_2586_158851">
      <rect width="60" height="26" fill="white" />
    </clipPath>
  </defs>
</svg>
