<svg width="60" height="26" viewBox="0 0 257 32" fill="none" xmlns="http://www.w3.org/2000/svg">
<g clip-path="url(#clip0_8822_487131)">
<path d="M55.8235 8.80512H60.0002L59.4328 12.3593H55.2561L53.7204 21.9373C53.6226 22.557 53.6128 23.0308 53.7009 23.3407C53.7889 23.6505 53.9845 23.8693 54.2975 23.9968C54.6105 24.1244 55.0996 24.1882 55.7746 24.1882C56.5277 24.1882 57.1244 24.1427 57.5646 24.0424L56.8994 28.198C56.0778 28.3256 54.9431 28.3894 53.4955 28.3894C51.2457 28.3894 49.6513 28.034 48.7221 27.3232C47.7928 26.6123 47.4602 25.4094 47.7341 23.7143L49.5437 12.3775H46.0908L46.6582 8.82334H50.111L51.0501 3H56.7527L55.8235 8.80512Z" fill="white"/>
<path d="M7.49282 12.5592C8.36338 13.5526 7.51238 15.5575 5.58542 17.0247C3.65845 18.4919 0.508797 17.8905 0.508797 17.8905C0.508797 17.8905 0.489234 14.8922 2.4162 13.425C4.34316 11.9578 6.62226 11.5659 7.49282 12.5592Z" fill="white"/>
<path d="M23.9562 8.32221L18.6155 22.1014L16.5613 7.93945H8.96107C9.80228 8.23108 10.5457 8.69585 11.1228 9.352C13.3236 11.8581 12.2574 16.0593 8.74587 18.7386C8.29592 19.0758 7.79706 19.3401 7.26886 19.5315C7.26886 19.5315 7.23951 19.5406 7.19061 19.5588C7.0341 19.6135 6.86782 19.6682 6.70153 19.7046C5.51796 20.06 2.70088 20.7982 0.773914 20.5977L0.382652 20.7435C0.0402978 21.1809 -0.615066 22.4112 1.35102 23.6324C3.81597 25.1634 10.8 23.2496 10.8 23.2496V27.8427C9.84141 28.3804 7.79706 28.754 5.89944 28.991H21.8923L30.5196 8.32221H23.9562Z" fill="white"/>
<path d="M34.6368 23.6419C32.1718 22.1108 33.8151 20.5798 33.8151 20.5798C33.8151 20.5798 37.1017 21.7281 41.6208 19.0488L41.7871 18.9212V18.9121C41.8653 18.8574 41.9436 18.8119 42.0218 18.7481C45.5334 16.0688 46.5996 11.8585 44.3988 9.36145C42.3544 7.03758 38.2266 7.00113 34.8422 9.14273V9.13362C34.8422 9.13362 34.8031 9.15185 34.7444 9.19741C34.7248 9.20653 34.7052 9.22475 34.6857 9.23387C34.5781 9.30677 34.4216 9.41613 34.2162 9.56194C34.1575 9.5984 34.0988 9.63485 34.0499 9.68041C34.0108 9.70775 33.9814 9.73509 33.9521 9.76243C32.3381 11.0109 28.9928 14.073 28.0734 18.6569C26.8409 24.781 30.9491 27.8431 35.879 28.6086C40.8089 29.3741 44.0955 27.8431 44.0955 27.8431V23.25C44.0857 23.2591 37.1017 25.1729 34.6368 23.6419ZM35.703 13.4259C37.6299 11.9496 39.909 11.5669 40.7796 12.5602C41.6501 13.5535 40.7991 15.5584 38.8722 17.0257C36.9452 18.502 33.7956 17.8914 33.7956 17.8914C33.7956 17.8914 33.7662 14.8932 35.703 13.4259Z" fill="white"/>
</g>
<path d="M84.42 10.438C84.42 10.074 84.4853 9.71933 84.616 9.374H86.31C86.2633 9.542 86.2307 9.69133 86.212 9.822C86.1933 9.95267 86.184 10.1067 86.184 10.284C86.184 10.5733 86.2587 10.8393 86.408 11.082C86.5667 11.3247 86.786 11.516 87.066 11.656C87.346 11.7867 87.654 11.852 87.99 11.852C88.3167 11.852 88.6107 11.782 88.872 11.642C89.1427 11.4927 89.3527 11.292 89.502 11.04C89.6607 10.788 89.74 10.5127 89.74 10.214C89.74 9.878 89.67 9.57933 89.53 9.318C89.3993 9.04733 89.208 8.83733 88.956 8.688C88.704 8.53867 88.4007 8.464 88.046 8.464H87.402V7.092H88.34C88.6853 7.092 88.9513 7.01733 89.138 6.868C89.334 6.71867 89.432 6.52733 89.432 6.294C89.432 6.10733 89.3807 5.94867 89.278 5.818C89.1847 5.678 89.0587 5.566 88.9 5.482C88.7413 5.38867 88.5313 5.286 88.27 5.174C87.8873 5.01533 87.5653 4.852 87.304 4.684C87.0427 4.516 86.828 4.29667 86.66 4.026C86.492 3.75533 86.3987 3.41467 86.38 3.004H88.13C88.158 3.2 88.2327 3.368 88.354 3.508C88.4847 3.648 88.6247 3.76467 88.774 3.858C88.9327 3.942 89.1427 4.04933 89.404 4.18C89.7867 4.36667 90.0853 4.53 90.3 4.67C90.524 4.81 90.7153 5.006 90.874 5.258C91.0327 5.50067 91.112 5.804 91.112 6.168C91.112 6.54133 91.0047 6.868 90.79 7.148C90.5753 7.428 90.2627 7.63333 89.852 7.764V7.82C90.132 7.904 90.3933 8.05333 90.636 8.268C90.888 8.48267 91.0933 8.76267 91.252 9.108C91.4107 9.45333 91.49 9.85467 91.49 10.312C91.49 10.872 91.336 11.376 91.028 11.824C90.72 12.2627 90.2953 12.608 89.754 12.86C89.222 13.112 88.634 13.238 87.99 13.238C87.346 13.238 86.7487 13.1167 86.198 12.874C85.6567 12.6313 85.2227 12.3 84.896 11.88C84.5787 11.4507 84.42 10.97 84.42 10.438ZM100.663 9.612C100.663 8.93067 100.542 8.41733 100.299 8.072C100.066 7.72667 99.7581 7.554 99.3754 7.554C99.1607 7.554 98.9694 7.61467 98.8014 7.736C98.6427 7.85733 98.5167 8.03 98.4234 8.254C98.3301 8.478 98.2834 8.73467 98.2834 9.024V11.194H96.6734V9.038C96.6734 8.57133 96.5754 8.20733 96.3794 7.946C96.1834 7.68467 95.9267 7.554 95.6094 7.554C95.3667 7.554 95.1474 7.61933 94.9514 7.75C94.7554 7.88067 94.5967 8.1 94.4754 8.408C94.3541 8.70667 94.2934 9.09867 94.2934 9.584C94.2934 10.2093 94.3727 10.8113 94.5314 11.39C94.6994 11.9593 94.9421 12.496 95.2594 13H93.5234C93.1874 12.468 92.9401 11.8893 92.7814 11.264C92.6227 10.6293 92.5434 9.81733 92.5434 8.828C92.5434 7.232 92.9027 6.042 93.6214 5.258C94.3401 4.46467 95.3341 3.94667 96.6034 3.704L97.9054 3.452C98.1201 3.41467 98.2927 3.36333 98.4234 3.298C98.5634 3.22333 98.6567 3.12533 98.7034 3.004H100.453C100.388 3.508 100.183 3.90467 99.8374 4.194C99.5014 4.474 98.9647 4.67467 98.2274 4.796L96.9954 4.992C96.1834 5.132 95.4974 5.37467 94.9374 5.72C94.3867 6.056 94.0414 6.55533 93.9014 7.218H93.9434C94.1207 6.89133 94.3774 6.644 94.7134 6.476C95.0587 6.29867 95.3947 6.21 95.7214 6.21C96.1134 6.21 96.4634 6.322 96.7714 6.546C97.0794 6.76067 97.3127 7.06867 97.4714 7.47H97.5134C97.7094 7.06867 97.9894 6.76067 98.3534 6.546C98.7267 6.322 99.1421 6.21 99.5994 6.21C100.122 6.21 100.593 6.34533 101.013 6.616C101.443 6.88667 101.783 7.274 102.035 7.778C102.287 8.27267 102.413 8.84667 102.413 9.5C102.413 10.2187 102.329 10.8627 102.161 11.432C102.003 11.992 101.76 12.5147 101.433 13H99.6974C100.024 12.468 100.267 11.9313 100.425 11.39C100.584 10.8393 100.663 10.2467 100.663 9.612ZM112.357 8.338V6.448C112.357 5.68267 112.231 5.10867 111.979 4.726C111.727 4.34333 111.387 4.152 110.957 4.152C110.724 4.152 110.514 4.21733 110.327 4.348C110.141 4.47867 109.991 4.67 109.879 4.922C109.777 5.174 109.725 5.47267 109.725 5.818V10.144H108.073V5.818C108.073 5.46333 108.017 5.16467 107.905 4.922C107.803 4.67 107.658 4.47867 107.471 4.348C107.294 4.21733 107.089 4.152 106.855 4.152C106.426 4.152 106.085 4.348 105.833 4.74C105.581 5.132 105.455 5.69667 105.455 6.434V8.338C105.455 9.15 105.558 9.99933 105.763 10.886C105.969 11.7727 106.225 12.4773 106.533 13H104.769C104.573 12.6827 104.391 12.2767 104.223 11.782C104.065 11.278 103.939 10.7273 103.845 10.13C103.752 9.52333 103.705 8.92133 103.705 8.324V6.378C103.705 5.65 103.831 5.01533 104.083 4.474C104.335 3.92333 104.685 3.50333 105.133 3.214C105.581 2.91533 106.085 2.766 106.645 2.766C107.159 2.766 107.616 2.88267 108.017 3.116C108.419 3.34933 108.703 3.69467 108.871 4.152H108.913C109.091 3.69467 109.385 3.34933 109.795 3.116C110.206 2.88267 110.659 2.766 111.153 2.766C111.732 2.766 112.245 2.91067 112.693 3.2C113.141 3.48933 113.487 3.90467 113.729 4.446C113.981 4.98733 114.107 5.63133 114.107 6.378V8.324C114.107 9.22933 114.005 10.1113 113.799 10.97C113.603 11.8287 113.342 12.5053 113.015 13H111.251C111.578 12.4587 111.844 11.754 112.049 10.886C112.255 10.018 112.357 9.16867 112.357 8.338ZM117.307 10.55H119.043C119.155 11.0447 119.426 11.39 119.855 11.586C120.285 11.7727 120.817 11.866 121.451 11.866C121.843 11.866 122.221 11.81 122.585 11.698C122.959 11.586 123.262 11.4087 123.495 11.166C123.738 10.9233 123.859 10.6153 123.859 10.242C123.859 9.98067 123.808 9.74267 123.705 9.528C123.603 9.304 123.453 9.122 123.257 8.982C123.061 8.842 122.823 8.772 122.543 8.772H122.193V7.456H122.837C123.285 7.456 123.617 7.316 123.831 7.036C124.046 6.74667 124.153 6.35 124.153 5.846C124.153 5.286 124.032 4.86133 123.789 4.572C123.547 4.27333 123.211 4.124 122.781 4.124C122.399 4.124 122.086 4.25 121.843 4.502C121.61 4.74467 121.493 5.09 121.493 5.538V6.042C121.493 6.67667 121.367 7.23667 121.115 7.722C120.863 8.20733 120.504 8.58533 120.037 8.856C119.571 9.11733 119.025 9.248 118.399 9.248C117.765 9.248 117.209 9.11733 116.733 8.856C116.267 8.58533 115.907 8.20733 115.655 7.722C115.403 7.23667 115.277 6.67667 115.277 6.042C115.277 5.40733 115.399 4.84267 115.641 4.348C115.893 3.844 116.248 3.45667 116.705 3.186C117.172 2.906 117.704 2.766 118.301 2.766C118.871 2.766 119.356 2.878 119.757 3.102C120.159 3.326 120.481 3.68067 120.723 4.166H120.779C120.966 3.72733 121.265 3.38667 121.675 3.144C122.086 2.892 122.553 2.766 123.075 2.766C123.598 2.766 124.069 2.892 124.489 3.144C124.919 3.38667 125.255 3.72733 125.497 4.166C125.749 4.60467 125.875 5.09933 125.875 5.65C125.875 6.91 125.376 7.74067 124.377 8.142V8.198C124.769 8.38467 125.068 8.674 125.273 9.066C125.488 9.44867 125.595 9.91067 125.595 10.452C125.595 11.0027 125.418 11.4927 125.063 11.922C124.709 12.342 124.214 12.6687 123.579 12.902C122.954 13.126 122.245 13.238 121.451 13.238C120.667 13.238 119.972 13.1447 119.365 12.958C118.759 12.762 118.273 12.4633 117.909 12.062C117.545 11.6607 117.345 11.1567 117.307 10.55ZM119.967 6.028C119.967 5.43067 119.827 4.95933 119.547 4.614C119.267 4.25933 118.885 4.082 118.399 4.082C117.905 4.082 117.522 4.25933 117.251 4.614C116.981 4.95933 116.845 5.43067 116.845 6.028C116.845 6.60667 116.981 7.07333 117.251 7.428C117.522 7.77333 117.9 7.946 118.385 7.946C118.889 7.946 119.277 7.77333 119.547 7.428C119.827 7.07333 119.967 6.60667 119.967 6.028ZM126.886 10.214C126.886 9.682 126.97 9.21533 127.138 8.814H128.818C128.753 9.04733 128.706 9.25267 128.678 9.43C128.65 9.60733 128.636 9.81267 128.636 10.046C128.636 10.4193 128.711 10.7413 128.86 11.012C129.01 11.2827 129.215 11.4927 129.476 11.642C129.747 11.782 130.06 11.852 130.414 11.852C130.778 11.852 131.091 11.7727 131.352 11.614C131.623 11.4553 131.828 11.236 131.968 10.956C132.108 10.6667 132.178 10.3353 132.178 9.962V6.028C132.178 5.68267 132.118 5.37 131.996 5.09C131.875 4.80067 131.688 4.572 131.436 4.404C131.194 4.236 130.9 4.152 130.554 4.152C130.218 4.152 129.924 4.22667 129.672 4.376C129.43 4.516 129.243 4.70733 129.112 4.95C128.991 5.19267 128.93 5.44933 128.93 5.72C128.93 5.96267 128.958 6.20067 129.014 6.434H127.292C127.218 6.21 127.18 5.93933 127.18 5.622C127.18 5.10867 127.32 4.63733 127.6 4.208C127.88 3.76933 128.277 3.41933 128.79 3.158C129.304 2.89667 129.892 2.766 130.554 2.766C131.245 2.766 131.842 2.91067 132.346 3.2C132.86 3.48 133.252 3.86267 133.522 4.348C133.802 4.824 133.942 5.35133 133.942 5.93V10.004C133.942 10.648 133.793 11.2173 133.494 11.712C133.196 12.1973 132.776 12.5753 132.234 12.846C131.702 13.1073 131.091 13.238 130.4 13.238C129.7 13.238 129.084 13.1167 128.552 12.874C128.02 12.622 127.61 12.2673 127.32 11.81C127.031 11.3527 126.886 10.8207 126.886 10.214ZM135.604 9.934V3.004H137.368V9.794C137.368 10.2047 137.443 10.5687 137.592 10.886C137.742 11.194 137.952 11.4367 138.222 11.614C138.493 11.782 138.806 11.866 139.16 11.866C139.515 11.866 139.823 11.7913 140.084 11.642C140.355 11.4927 140.565 11.292 140.714 11.04C140.864 10.788 140.938 10.5033 140.938 10.186C140.938 9.934 140.906 9.71 140.84 9.514C140.784 9.318 140.714 9.15467 140.63 9.024C140.546 8.884 140.425 8.716 140.266 8.52C140.089 8.296 139.949 8.10467 139.846 7.946C139.744 7.778 139.655 7.568 139.58 7.316C139.506 7.064 139.468 6.77 139.468 6.434H141.162C141.172 6.73267 141.232 6.98933 141.344 7.204C141.456 7.40933 141.62 7.66133 141.834 7.96C142.021 8.212 142.17 8.436 142.282 8.632C142.404 8.828 142.502 9.07067 142.576 9.36C142.66 9.64933 142.702 9.99 142.702 10.382C142.702 10.9513 142.539 11.4553 142.212 11.894C141.895 12.3233 141.466 12.6547 140.924 12.888C140.383 13.1213 139.795 13.238 139.16 13.238C138.479 13.238 137.868 13.1073 137.326 12.846C136.785 12.5847 136.36 12.2067 136.052 11.712C135.754 11.208 135.604 10.6153 135.604 9.934ZM149.317 8.394V6.546C149.317 6.08867 149.251 5.68267 149.121 5.328C148.99 4.964 148.789 4.67933 148.519 4.474C148.248 4.25933 147.917 4.152 147.525 4.152C147.133 4.152 146.801 4.25933 146.531 4.474C146.269 4.67933 146.069 4.964 145.929 5.328C145.798 5.68267 145.733 6.08867 145.733 6.546V8.394C145.733 9.234 145.821 10.0787 145.999 10.928C146.185 11.768 146.405 12.4587 146.657 13H144.921C144.659 12.496 144.435 11.8147 144.249 10.956C144.071 10.0973 143.983 9.22933 143.983 8.352V6.448C143.983 5.71067 144.132 5.062 144.431 4.502C144.739 3.942 145.159 3.51267 145.691 3.214C146.232 2.91533 146.843 2.766 147.525 2.766C148.206 2.766 148.817 2.92 149.359 3.228C149.9 3.52667 150.32 3.956 150.619 4.516C150.927 5.076 151.081 5.72467 151.081 6.462V8.352C151.081 9.22 150.987 10.0833 150.801 10.942C150.614 11.8007 150.39 12.4867 150.129 13H148.393C148.645 12.468 148.859 11.7773 149.037 10.928C149.223 10.0787 149.317 9.234 149.317 8.394ZM152.512 10.2C152.512 9.79867 152.596 9.36467 152.764 8.898H154.458C154.402 9.066 154.356 9.25733 154.318 9.472C154.29 9.68667 154.276 9.88733 154.276 10.074C154.276 10.41 154.356 10.7133 154.514 10.984C154.673 11.2547 154.897 11.4693 155.186 11.628C155.485 11.7773 155.826 11.852 156.208 11.852C156.572 11.852 156.894 11.7773 157.174 11.628C157.464 11.4693 157.688 11.2407 157.846 10.942C158.014 10.634 158.098 10.27 158.098 9.85V5.58C158.098 5.15067 158 4.80533 157.804 4.544C157.618 4.28267 157.347 4.152 156.992 4.152C156.647 4.152 156.381 4.278 156.194 4.53C156.008 4.77267 155.914 5.104 155.914 5.524V6.91H154.248V5.454C154.248 5.09933 154.146 4.81933 153.94 4.614C153.744 4.40867 153.455 4.306 153.072 4.306H152.316V2.85H153.058C153.581 2.85 154.006 2.93867 154.332 3.116C154.659 3.29333 154.892 3.578 155.032 3.97H155.088C155.266 3.578 155.536 3.27933 155.9 3.074C156.274 2.86867 156.703 2.766 157.188 2.766C157.711 2.766 158.173 2.87333 158.574 3.088C158.985 3.29333 159.298 3.59667 159.512 3.998C159.736 4.39 159.848 4.852 159.848 5.384V9.934C159.848 10.578 159.69 11.152 159.372 11.656C159.055 12.1507 158.621 12.538 158.07 12.818C157.52 13.098 156.899 13.238 156.208 13.238C155.527 13.238 154.902 13.1073 154.332 12.846C153.772 12.5847 153.329 12.2253 153.002 11.768C152.676 11.3013 152.512 10.7787 152.512 10.2ZM166.68 11.628H162.424V10.41H163.81V10.354C163.334 10.1767 162.89 9.91533 162.48 9.57C162.069 9.21533 161.738 8.78133 161.486 8.268C161.243 7.74533 161.122 7.17133 161.122 6.546C161.122 5.79 161.243 5.12733 161.486 4.558C161.728 3.98867 162.069 3.55 162.508 3.242C162.956 2.92467 163.464 2.766 164.034 2.766C164.482 2.766 164.897 2.892 165.28 3.144C165.662 3.38667 165.933 3.718 166.092 4.138H166.148C166.232 3.858 166.372 3.61533 166.568 3.41C166.773 3.19533 167.006 3.03667 167.268 2.934C167.538 2.822 167.804 2.766 168.066 2.766C168.346 2.766 168.621 2.822 168.892 2.934C169.162 3.03667 169.396 3.19533 169.592 3.41C169.797 3.61533 169.937 3.858 170.012 4.138H170.068C170.254 3.69933 170.525 3.36333 170.88 3.13C171.234 2.88733 171.645 2.766 172.112 2.766C172.681 2.766 173.185 2.92 173.624 3.228C174.062 3.536 174.403 3.97 174.646 4.53C174.898 5.09 175.024 5.72933 175.024 6.448C175.024 7.58667 174.846 8.57133 174.492 9.402H172.742C173.096 8.55267 173.274 7.58667 173.274 6.504C173.274 5.73867 173.162 5.15533 172.938 4.754C172.714 4.34333 172.406 4.138 172.014 4.138C171.79 4.138 171.589 4.20333 171.412 4.334C171.234 4.45533 171.099 4.628 171.006 4.852C170.912 5.06667 170.866 5.31867 170.866 5.608V8.17H169.228V5.594C169.228 5.146 169.12 4.79133 168.906 4.53C168.7 4.26867 168.425 4.138 168.08 4.138C167.846 4.138 167.641 4.20333 167.464 4.334C167.296 4.45533 167.16 4.628 167.058 4.852C166.964 5.06667 166.918 5.314 166.918 5.594V8.17H165.28V5.622C165.28 5.16467 165.182 4.80533 164.986 4.544C164.79 4.27333 164.519 4.138 164.174 4.138C163.912 4.138 163.684 4.23133 163.488 4.418C163.292 4.60467 163.138 4.87533 163.026 5.23C162.923 5.57533 162.872 5.99067 162.872 6.476C162.872 7.204 163.044 7.84333 163.39 8.394C163.735 8.93533 164.169 9.36 164.692 9.668C165.224 9.976 165.76 10.158 166.302 10.214C166.386 10.2233 166.474 10.2327 166.568 10.242C166.67 10.2513 166.773 10.2607 166.876 10.27C168.07 10.382 168.915 10.5033 169.41 10.634C170.166 10.8393 170.735 11.1427 171.118 11.544C171.5 11.936 171.71 12.4213 171.748 13H169.886C169.802 12.5147 169.456 12.1647 168.85 11.95C168.252 11.7353 167.529 11.628 166.68 11.628ZM181.637 8.394V6.546C181.637 6.08867 181.572 5.68267 181.441 5.328C181.31 4.964 181.11 4.67933 180.839 4.474C180.568 4.25933 180.237 4.152 179.845 4.152C179.453 4.152 179.122 4.25933 178.851 4.474C178.59 4.67933 178.389 4.964 178.249 5.328C178.118 5.68267 178.053 6.08867 178.053 6.546V8.394C178.053 9.234 178.142 10.0787 178.319 10.928C178.506 11.768 178.725 12.4587 178.977 13H177.241C176.98 12.496 176.756 11.8147 176.569 10.956C176.392 10.0973 176.303 9.22933 176.303 8.352V6.448C176.303 5.71067 176.452 5.062 176.751 4.502C177.059 3.942 177.479 3.51267 178.011 3.214C178.552 2.91533 179.164 2.766 179.845 2.766C180.526 2.766 181.138 2.92 181.679 3.228C182.22 3.52667 182.64 3.956 182.939 4.516C183.247 5.076 183.401 5.72467 183.401 6.462V8.352C183.401 9.22 183.308 10.0833 183.121 10.942C182.934 11.8007 182.71 12.4867 182.449 13H180.713C180.965 12.468 181.18 11.7773 181.357 10.928C181.544 10.0787 181.637 9.234 181.637 8.394ZM84.518 25.822C84.518 24.898 84.7747 24.1653 85.288 23.624C85.8107 23.0733 86.478 22.6767 87.29 22.434C87.9433 22.2473 88.41 22.0373 88.69 21.804C88.97 21.5707 89.11 21.3047 89.11 21.006C89.11 20.838 89.0633 20.684 88.97 20.544C88.8767 20.3947 88.746 20.278 88.578 20.194C88.4193 20.11 88.2373 20.068 88.032 20.068C87.8267 20.068 87.6353 20.1193 87.458 20.222C87.29 20.3153 87.1547 20.4507 87.052 20.628C86.9587 20.796 86.912 20.9873 86.912 21.202H85.218C85.218 20.726 85.344 20.306 85.596 19.942C85.848 19.5687 86.184 19.2793 86.604 19.074C87.0333 18.8687 87.5 18.766 88.004 18.766C88.5267 18.766 88.9933 18.864 89.404 19.06C89.824 19.2467 90.1507 19.5033 90.384 19.83C90.6173 20.1567 90.734 20.5207 90.734 20.922C90.734 21.3607 90.608 21.7247 90.356 22.014C90.1133 22.3033 89.7913 22.5273 89.39 22.686V22.728C89.894 22.8307 90.3327 23.0267 90.706 23.316C91.0887 23.6053 91.378 23.9693 91.574 24.408C91.7793 24.8373 91.882 25.3087 91.882 25.822C91.882 26.5313 91.7187 27.1427 91.392 27.656C91.0653 28.1693 90.6173 28.5613 90.048 28.832C89.488 29.1027 88.8673 29.238 88.186 29.238C87.5233 29.238 86.912 29.1027 86.352 28.832C85.792 28.5613 85.344 28.1693 85.008 27.656C84.6813 27.1427 84.518 26.5313 84.518 25.822ZM90.16 25.808C90.16 25.3693 90.076 24.9867 89.908 24.66C89.74 24.3333 89.5067 24.086 89.208 23.918C88.9093 23.7407 88.5687 23.652 88.186 23.652C87.8127 23.652 87.4813 23.7407 87.192 23.918C86.9027 24.086 86.674 24.3333 86.506 24.66C86.3473 24.9867 86.268 25.3693 86.268 25.808C86.268 26.2093 86.3473 26.5687 86.506 26.886C86.674 27.194 86.9027 27.432 87.192 27.6C87.4907 27.768 87.822 27.852 88.186 27.852C88.5687 27.852 88.9093 27.768 89.208 27.6C89.5067 27.432 89.74 27.194 89.908 26.886C90.076 26.5687 90.16 26.2093 90.16 25.808ZM92.8145 25.836C92.8145 25.5187 92.8519 25.22 92.9265 24.94C93.0105 24.6507 93.1085 24.394 93.2205 24.17H94.9005C94.6765 24.7207 94.5645 25.2573 94.5645 25.78C94.5645 26.172 94.6392 26.5267 94.7885 26.844C94.9379 27.152 95.1525 27.3993 95.4325 27.586C95.7219 27.7633 96.0485 27.852 96.4125 27.852C96.7952 27.852 97.1265 27.7633 97.4065 27.586C97.6865 27.3993 97.9012 27.152 98.0505 26.844C98.1999 26.5267 98.2745 26.172 98.2745 25.78C98.2745 25.304 98.2092 24.8887 98.0785 24.534C97.9479 24.17 97.7845 23.8573 97.5885 23.596C97.3925 23.3347 97.1172 23.0173 96.7625 22.644C96.4639 22.3267 96.2119 22.014 96.0065 21.706C95.8012 21.398 95.6285 21.0247 95.4885 20.586C95.3579 20.138 95.2925 19.6107 95.2925 19.004H97.0425C97.0425 19.62 97.1405 20.1427 97.3365 20.572C97.5419 21.0013 97.8359 21.426 98.2185 21.846C98.6385 22.3127 98.9652 22.7047 99.1985 23.022C99.4319 23.33 99.6279 23.722 99.7865 24.198C99.9545 24.6647 100.039 25.2107 100.039 25.836C100.039 26.48 99.8799 27.0633 99.5625 27.586C99.2452 28.1087 98.8065 28.5147 98.2465 28.804C97.6959 29.0933 97.0799 29.238 96.3985 29.238C95.7079 29.238 95.0872 29.0933 94.5365 28.804C93.9952 28.5147 93.5705 28.1133 93.2625 27.6C92.9639 27.0773 92.8145 26.4893 92.8145 25.836ZM101.368 25.682V21.65C101.368 20.782 101.63 20.124 102.152 19.676C102.684 19.228 103.464 19.004 104.49 19.004H107.752V20.418H104.588C104.094 20.418 103.725 20.5253 103.482 20.74C103.249 20.9547 103.132 21.286 103.132 21.734V23.302H103.16C103.375 22.966 103.697 22.7 104.126 22.504C104.556 22.2987 105.018 22.196 105.512 22.196C106.091 22.196 106.623 22.3407 107.108 22.63C107.603 22.9193 107.995 23.33 108.284 23.862C108.574 24.3847 108.718 24.9867 108.718 25.668C108.718 26.3773 108.56 27.0027 108.242 27.544C107.925 28.0853 107.486 28.5053 106.926 28.804C106.376 29.0933 105.75 29.238 105.05 29.238C104.341 29.238 103.706 29.0933 103.146 28.804C102.586 28.5053 102.148 28.0853 101.83 27.544C101.522 27.0027 101.368 26.382 101.368 25.682ZM106.954 25.738C106.954 25.3087 106.875 24.9307 106.716 24.604C106.558 24.2773 106.334 24.03 106.044 23.862C105.755 23.6847 105.424 23.596 105.05 23.596C104.668 23.596 104.327 23.6847 104.028 23.862C103.73 24.03 103.496 24.2773 103.328 24.604C103.16 24.9213 103.076 25.2993 103.076 25.738C103.076 26.1673 103.16 26.5407 103.328 26.858C103.496 27.1753 103.73 27.4227 104.028 27.6C104.327 27.768 104.668 27.852 105.05 27.852C105.414 27.852 105.741 27.768 106.03 27.6C106.32 27.4227 106.544 27.1753 106.702 26.858C106.87 26.5407 106.954 26.1673 106.954 25.738ZM109.658 25.836C109.658 25.5187 109.696 25.22 109.77 24.94C109.854 24.6507 109.952 24.394 110.064 24.17H111.744C111.52 24.7207 111.408 25.2573 111.408 25.78C111.408 26.172 111.483 26.5267 111.632 26.844C111.782 27.152 111.996 27.3993 112.276 27.586C112.566 27.7633 112.892 27.852 113.256 27.852C113.639 27.852 113.97 27.7633 114.25 27.586C114.53 27.3993 114.745 27.152 114.894 26.844C115.044 26.5267 115.118 26.172 115.118 25.78C115.118 25.304 115.053 24.8887 114.922 24.534C114.792 24.17 114.628 23.8573 114.432 23.596C114.236 23.3347 113.961 23.0173 113.606 22.644C113.308 22.3267 113.056 22.014 112.85 21.706C112.645 21.398 112.472 21.0247 112.332 20.586C112.202 20.138 112.136 19.6107 112.136 19.004H113.886C113.886 19.62 113.984 20.1427 114.18 20.572C114.386 21.0013 114.68 21.426 115.062 21.846C115.482 22.3127 115.809 22.7047 116.042 23.022C116.276 23.33 116.472 23.722 116.63 24.198C116.798 24.6647 116.882 25.2107 116.882 25.836C116.882 26.48 116.724 27.0633 116.406 27.586C116.089 28.1087 115.65 28.5147 115.09 28.804C114.54 29.0933 113.924 29.238 113.242 29.238C112.552 29.238 111.931 29.0933 111.38 28.804C110.839 28.5147 110.414 28.1133 110.106 27.6C109.808 27.0773 109.658 26.4893 109.658 25.836ZM127.984 24.52V22.378C127.984 21.6033 127.858 21.034 127.606 20.67C127.354 20.2967 127.009 20.11 126.57 20.11C126.309 20.11 126.075 20.1847 125.87 20.334C125.665 20.474 125.497 20.6933 125.366 20.992C125.245 21.2907 125.184 21.6687 125.184 22.126V25.36C125.184 26.172 125.035 26.872 124.736 27.46C124.447 28.0387 124.041 28.482 123.518 28.79C122.995 29.0887 122.393 29.238 121.712 29.238C121.031 29.238 120.424 29.0887 119.892 28.79C119.36 28.482 118.94 28.0387 118.632 27.46C118.324 26.872 118.17 26.1767 118.17 25.374V22.644C118.17 21.8413 118.315 21.1507 118.604 20.572C118.893 19.984 119.295 19.536 119.808 19.228C120.321 18.92 120.905 18.766 121.558 18.766C122.165 18.766 122.706 18.9013 123.182 19.172C123.658 19.4427 124.013 19.8207 124.246 20.306H124.302C124.423 19.998 124.61 19.7273 124.862 19.494C125.123 19.2607 125.417 19.0833 125.744 18.962C126.071 18.8313 126.397 18.766 126.724 18.766C127.312 18.766 127.835 18.9107 128.292 19.2C128.749 19.48 129.104 19.8953 129.356 20.446C129.617 20.9873 129.748 21.636 129.748 22.392V24.464C129.748 25.36 129.65 26.2187 129.454 27.04C129.267 27.852 129.015 28.5053 128.698 29H126.92C127.247 28.4587 127.503 27.7867 127.69 26.984C127.886 26.172 127.984 25.3507 127.984 24.52ZM123.462 25.29V22.728C123.462 21.8787 123.322 21.2393 123.042 20.81C122.762 20.3713 122.319 20.152 121.712 20.152C121.124 20.152 120.676 20.376 120.368 20.824C120.069 21.2627 119.92 21.8927 119.92 22.714V25.29C119.92 26.1207 120.069 26.7553 120.368 27.194C120.676 27.6327 121.124 27.852 121.712 27.852C122.3 27.852 122.739 27.6373 123.028 27.208C123.317 26.7693 123.462 26.13 123.462 25.29ZM136.56 27.628H132.304V26.41H133.69V26.354C133.214 26.1767 132.771 25.9153 132.36 25.57C131.95 25.2153 131.618 24.7813 131.366 24.268C131.124 23.7453 131.002 23.1713 131.002 22.546C131.002 21.79 131.124 21.1273 131.366 20.558C131.609 19.9887 131.95 19.55 132.388 19.242C132.836 18.9247 133.345 18.766 133.914 18.766C134.362 18.766 134.778 18.892 135.16 19.144C135.543 19.3867 135.814 19.718 135.972 20.138H136.028C136.112 19.858 136.252 19.6153 136.448 19.41C136.654 19.1953 136.887 19.0367 137.148 18.934C137.419 18.822 137.685 18.766 137.946 18.766C138.226 18.766 138.502 18.822 138.772 18.934C139.043 19.0367 139.276 19.1953 139.472 19.41C139.678 19.6153 139.818 19.858 139.892 20.138H139.948C140.135 19.6993 140.406 19.3633 140.76 19.13C141.115 18.8873 141.526 18.766 141.992 18.766C142.562 18.766 143.066 18.92 143.504 19.228C143.943 19.536 144.284 19.97 144.526 20.53C144.778 21.09 144.904 21.7293 144.904 22.448C144.904 23.5867 144.727 24.5713 144.372 25.402H142.622C142.977 24.5527 143.154 23.5867 143.154 22.504C143.154 21.7387 143.042 21.1553 142.818 20.754C142.594 20.3433 142.286 20.138 141.894 20.138C141.67 20.138 141.47 20.2033 141.292 20.334C141.115 20.4553 140.98 20.628 140.886 20.852C140.793 21.0667 140.746 21.3187 140.746 21.608V24.17H139.108V21.594C139.108 21.146 139.001 20.7913 138.786 20.53C138.581 20.2687 138.306 20.138 137.96 20.138C137.727 20.138 137.522 20.2033 137.344 20.334C137.176 20.4553 137.041 20.628 136.938 20.852C136.845 21.0667 136.798 21.314 136.798 21.594V24.17H135.16V21.622C135.16 21.1647 135.062 20.8053 134.866 20.544C134.67 20.2733 134.4 20.138 134.054 20.138C133.793 20.138 133.564 20.2313 133.368 20.418C133.172 20.6047 133.018 20.8753 132.906 21.23C132.804 21.5753 132.752 21.9907 132.752 22.476C132.752 23.204 132.925 23.8433 133.27 24.394C133.616 24.9353 134.05 25.36 134.572 25.668C135.104 25.976 135.641 26.158 136.182 26.214C136.266 26.2233 136.355 26.2327 136.448 26.242C136.551 26.2513 136.654 26.2607 136.756 26.27C137.951 26.382 138.796 26.5033 139.29 26.634C140.046 26.8393 140.616 27.1427 140.998 27.544C141.381 27.936 141.591 28.4213 141.628 29H139.766C139.682 28.5147 139.337 28.1647 138.73 27.95C138.133 27.7353 137.41 27.628 136.56 27.628ZM145.918 26.214C145.918 25.682 146.002 25.2153 146.17 24.814H147.85C147.784 25.0473 147.738 25.2527 147.71 25.43C147.682 25.6073 147.668 25.8127 147.668 26.046C147.668 26.4193 147.742 26.7413 147.892 27.012C148.041 27.2827 148.246 27.4927 148.508 27.642C148.778 27.782 149.091 27.852 149.446 27.852C149.81 27.852 150.122 27.7727 150.384 27.614C150.654 27.4553 150.86 27.236 151 26.956C151.14 26.6667 151.21 26.3353 151.21 25.962V22.028C151.21 21.6827 151.149 21.37 151.028 21.09C150.906 20.8007 150.72 20.572 150.468 20.404C150.225 20.236 149.931 20.152 149.586 20.152C149.25 20.152 148.956 20.2267 148.704 20.376C148.461 20.516 148.274 20.7073 148.144 20.95C148.022 21.1927 147.962 21.4493 147.962 21.72C147.962 21.9627 147.99 22.2007 148.046 22.434H146.324C146.249 22.21 146.212 21.9393 146.212 21.622C146.212 21.1087 146.352 20.6373 146.632 20.208C146.912 19.7693 147.308 19.4193 147.822 19.158C148.335 18.8967 148.923 18.766 149.586 18.766C150.276 18.766 150.874 18.9107 151.378 19.2C151.891 19.48 152.283 19.8627 152.554 20.348C152.834 20.824 152.974 21.3513 152.974 21.93V26.004C152.974 26.648 152.824 27.2173 152.526 27.712C152.227 28.1973 151.807 28.5753 151.266 28.846C150.734 29.1073 150.122 29.238 149.432 29.238C148.732 29.238 148.116 29.1167 147.584 28.874C147.052 28.622 146.641 28.2673 146.352 27.81C146.062 27.3527 145.918 26.8207 145.918 26.214ZM154.286 25.696C154.286 25.0427 154.416 24.4687 154.678 23.974C154.948 23.47 155.312 23.0687 155.77 22.77C156.236 22.462 156.759 22.2707 157.338 22.196V21.944C157.338 21.7573 157.305 21.5987 157.24 21.468C157.184 21.3373 157.109 21.2347 157.016 21.16C156.922 21.076 156.796 20.978 156.638 20.866C156.628 20.866 156.591 20.8427 156.526 20.796C156.33 20.6653 156.171 20.5393 156.05 20.418C155.938 20.2967 155.84 20.124 155.756 19.9C155.681 19.6667 155.644 19.368 155.644 19.004H157.296C157.296 19.256 157.347 19.4613 157.45 19.62C157.562 19.7787 157.725 19.9327 157.94 20.082C158.173 20.25 158.36 20.3993 158.5 20.53C158.649 20.6607 158.775 20.8287 158.878 21.034C158.99 21.2393 159.046 21.482 159.046 21.762V22.28C159.55 22.4013 159.998 22.616 160.39 22.924C160.791 23.232 161.104 23.624 161.328 24.1C161.552 24.5667 161.664 25.0987 161.664 25.696C161.664 26.4147 161.5 27.0447 161.174 27.586C160.856 28.118 160.418 28.5287 159.858 28.818C159.298 29.098 158.668 29.238 157.968 29.238C157.286 29.238 156.666 29.098 156.106 28.818C155.546 28.5287 155.102 28.118 154.776 27.586C154.449 27.0447 154.286 26.4147 154.286 25.696ZM159.942 25.696C159.942 25.2573 159.858 24.8747 159.69 24.548C159.522 24.2213 159.288 23.974 158.99 23.806C158.691 23.638 158.35 23.554 157.968 23.554C157.594 23.554 157.263 23.638 156.974 23.806C156.684 23.974 156.456 24.2213 156.288 24.548C156.129 24.8747 156.05 25.2573 156.05 25.696C156.05 26.144 156.129 26.5313 156.288 26.858C156.456 27.1753 156.684 27.4227 156.974 27.6C157.263 27.768 157.594 27.852 157.968 27.852C158.35 27.852 158.691 27.768 158.99 27.6C159.288 27.4227 159.522 27.1753 159.69 26.858C159.858 26.5313 159.942 26.144 159.942 25.696ZM168.266 24.394V22.546C168.266 22.0887 168.2 21.6827 168.07 21.328C167.939 20.964 167.738 20.6793 167.468 20.474C167.197 20.2593 166.866 20.152 166.474 20.152C166.082 20.152 165.75 20.2593 165.48 20.474C165.218 20.6793 165.018 20.964 164.878 21.328C164.747 21.6827 164.682 22.0887 164.682 22.546V24.394C164.682 25.234 164.77 26.0787 164.948 26.928C165.134 27.768 165.354 28.4587 165.606 29H163.87C163.608 28.496 163.384 27.8147 163.198 26.956C163.02 26.0973 162.932 25.2293 162.932 24.352V22.448C162.932 21.7107 163.081 21.062 163.38 20.502C163.688 19.942 164.108 19.5127 164.64 19.214C165.181 18.9153 165.792 18.766 166.474 18.766C167.155 18.766 167.766 18.92 168.308 19.228C168.849 19.5267 169.269 19.956 169.568 20.516C169.876 21.076 170.03 21.7247 170.03 22.462V24.352C170.03 25.22 169.936 26.0833 169.75 26.942C169.563 27.8007 169.339 28.4867 169.078 29H167.342C167.594 28.468 167.808 27.7773 167.986 26.928C168.172 26.0787 168.266 25.234 168.266 24.394ZM171.643 25.934V19.004H173.407V25.794C173.407 26.2047 173.482 26.5687 173.631 26.886C173.781 27.194 173.991 27.4367 174.261 27.614C174.532 27.782 174.845 27.866 175.199 27.866C175.554 27.866 175.862 27.7913 176.123 27.642C176.394 27.4927 176.604 27.292 176.753 27.04C176.903 26.788 176.977 26.5033 176.977 26.186C176.977 25.934 176.945 25.71 176.879 25.514C176.823 25.318 176.753 25.1547 176.669 25.024C176.585 24.884 176.464 24.716 176.305 24.52C176.128 24.296 175.988 24.1047 175.885 23.946C175.783 23.778 175.694 23.568 175.619 23.316C175.545 23.064 175.507 22.77 175.507 22.434H177.201C177.211 22.7327 177.271 22.9893 177.383 23.204C177.495 23.4093 177.659 23.6613 177.873 23.96C178.06 24.212 178.209 24.436 178.321 24.632C178.443 24.828 178.541 25.0707 178.615 25.36C178.699 25.6493 178.741 25.99 178.741 26.382C178.741 26.9513 178.578 27.4553 178.251 27.894C177.934 28.3233 177.505 28.6547 176.963 28.888C176.422 29.1213 175.834 29.238 175.199 29.238C174.518 29.238 173.907 29.1073 173.365 28.846C172.824 28.5847 172.399 28.2067 172.091 27.712C171.793 27.208 171.643 26.6153 171.643 25.934ZM183.582 26.438C183.582 26.074 183.647 25.7193 183.778 25.374H185.472C185.425 25.542 185.393 25.6913 185.374 25.822C185.355 25.9527 185.346 26.1067 185.346 26.284C185.346 26.5733 185.421 26.8393 185.57 27.082C185.729 27.3247 185.948 27.516 186.228 27.656C186.508 27.7867 186.816 27.852 187.152 27.852C187.479 27.852 187.773 27.782 188.034 27.642C188.305 27.4927 188.515 27.292 188.664 27.04C188.823 26.788 188.902 26.5127 188.902 26.214C188.902 25.878 188.832 25.5793 188.692 25.318C188.561 25.0473 188.37 24.8373 188.118 24.688C187.866 24.5387 187.563 24.464 187.208 24.464H186.564V23.092H187.502C187.847 23.092 188.113 23.0173 188.3 22.868C188.496 22.7187 188.594 22.5273 188.594 22.294C188.594 22.1073 188.543 21.9487 188.44 21.818C188.347 21.678 188.221 21.566 188.062 21.482C187.903 21.3887 187.693 21.286 187.432 21.174C187.049 21.0153 186.727 20.852 186.466 20.684C186.205 20.516 185.99 20.2967 185.822 20.026C185.654 19.7553 185.561 19.4147 185.542 19.004H187.292C187.32 19.2 187.395 19.368 187.516 19.508C187.647 19.648 187.787 19.7647 187.936 19.858C188.095 19.942 188.305 20.0493 188.566 20.18C188.949 20.3667 189.247 20.53 189.462 20.67C189.686 20.81 189.877 21.006 190.036 21.258C190.195 21.5007 190.274 21.804 190.274 22.168C190.274 22.5413 190.167 22.868 189.952 23.148C189.737 23.428 189.425 23.6333 189.014 23.764V23.82C189.294 23.904 189.555 24.0533 189.798 24.268C190.05 24.4827 190.255 24.7627 190.414 25.108C190.573 25.4533 190.652 25.8547 190.652 26.312C190.652 26.872 190.498 27.376 190.19 27.824C189.882 28.2627 189.457 28.608 188.916 28.86C188.384 29.112 187.796 29.238 187.152 29.238C186.508 29.238 185.911 29.1167 185.36 28.874C184.819 28.6313 184.385 28.3 184.058 27.88C183.741 27.4507 183.582 26.97 183.582 26.438ZM200.596 24.338V22.448C200.596 21.6827 200.47 21.1087 200.218 20.726C199.966 20.3433 199.625 20.152 199.196 20.152C198.962 20.152 198.752 20.2173 198.566 20.348C198.379 20.4787 198.23 20.67 198.118 20.922C198.015 21.174 197.964 21.4727 197.964 21.818V26.144H196.312V21.818C196.312 21.4633 196.256 21.1647 196.144 20.922C196.041 20.67 195.896 20.4787 195.71 20.348C195.532 20.2173 195.327 20.152 195.094 20.152C194.664 20.152 194.324 20.348 194.072 20.74C193.82 21.132 193.694 21.6967 193.694 22.434V24.338C193.694 25.15 193.796 25.9993 194.002 26.886C194.207 27.7727 194.464 28.4773 194.772 29H193.008C192.812 28.6827 192.63 28.2767 192.462 27.782C192.303 27.278 192.177 26.7273 192.084 26.13C191.99 25.5233 191.944 24.9213 191.944 24.324V22.378C191.944 21.65 192.07 21.0153 192.322 20.474C192.574 19.9233 192.924 19.5033 193.372 19.214C193.82 18.9153 194.324 18.766 194.883 18.766C195.397 18.766 195.854 18.8827 196.256 19.116C196.657 19.3493 196.942 19.6947 197.11 20.152H197.152C197.329 19.6947 197.623 19.3493 198.034 19.116C198.444 18.8827 198.897 18.766 199.392 18.766C199.97 18.766 200.484 18.9107 200.932 19.2C201.38 19.4893 201.725 19.9047 201.968 20.446C202.22 20.9873 202.346 21.6313 202.346 22.378V24.324C202.346 25.2293 202.243 26.1113 202.038 26.97C201.842 27.8287 201.58 28.5053 201.254 29H199.49C199.816 28.4587 200.082 27.754 200.288 26.886C200.493 26.018 200.596 25.1687 200.596 24.338ZM211.734 25.612C211.734 24.9307 211.612 24.4173 211.37 24.072C211.136 23.7267 210.828 23.554 210.446 23.554C210.231 23.554 210.04 23.6147 209.872 23.736C209.713 23.8573 209.587 24.03 209.494 24.254C209.4 24.478 209.354 24.7347 209.354 25.024V27.194H207.744V25.038C207.744 24.5713 207.646 24.2073 207.45 23.946C207.254 23.6847 206.997 23.554 206.68 23.554C206.437 23.554 206.218 23.6193 206.022 23.75C205.826 23.8807 205.667 24.1 205.546 24.408C205.424 24.7067 205.364 25.0987 205.364 25.584C205.364 26.2093 205.443 26.8113 205.602 27.39C205.77 27.9593 206.012 28.496 206.33 29H204.594C204.258 28.468 204.01 27.8893 203.852 27.264C203.693 26.6293 203.614 25.8173 203.614 24.828C203.614 23.232 203.973 22.042 204.692 21.258C205.41 20.4647 206.404 19.9467 207.674 19.704L208.976 19.452C209.19 19.4147 209.363 19.3633 209.494 19.298C209.634 19.2233 209.727 19.1253 209.774 19.004H211.524C211.458 19.508 211.253 19.9047 210.908 20.194C210.572 20.474 210.035 20.6747 209.298 20.796L208.066 20.992C207.254 21.132 206.568 21.3747 206.008 21.72C205.457 22.056 205.112 22.5553 204.972 23.218H205.014C205.191 22.8913 205.448 22.644 205.784 22.476C206.129 22.2987 206.465 22.21 206.792 22.21C207.184 22.21 207.534 22.322 207.842 22.546C208.15 22.7607 208.383 23.0687 208.542 23.47H208.584C208.78 23.0687 209.06 22.7607 209.424 22.546C209.797 22.322 210.212 22.21 210.67 22.21C211.192 22.21 211.664 22.3453 212.084 22.616C212.513 22.8867 212.854 23.274 213.106 23.778C213.358 24.2727 213.484 24.8467 213.484 25.5C213.484 26.2187 213.4 26.8627 213.232 27.432C213.073 27.992 212.83 28.5147 212.504 29H210.768C211.094 28.468 211.337 27.9313 211.496 27.39C211.654 26.8393 211.734 26.2467 211.734 25.612ZM214.538 24.184C214.538 23.2227 214.71 22.3827 215.056 21.664C215.41 20.9453 215.886 20.376 216.484 19.956C217.081 19.536 217.739 19.2653 218.458 19.144H218.57C218.523 19.004 218.5 18.8313 218.5 18.626H219.942C219.942 18.6913 219.928 18.8127 219.9 18.99L219.886 19.144H219.984C220.712 19.256 221.37 19.5267 221.958 19.956C222.555 20.376 223.031 20.9453 223.386 21.664C223.74 22.3827 223.918 23.2227 223.918 24.184C223.918 25.248 223.708 26.1627 223.288 26.928C222.868 27.684 222.303 28.258 221.594 28.65C220.884 29.042 220.096 29.238 219.228 29.238C218.35 29.238 217.557 29.042 216.848 28.65C216.138 28.258 215.574 27.684 215.154 26.928C214.743 26.1627 214.538 25.248 214.538 24.184ZM222.182 24.184C222.182 23.1387 221.972 22.3127 221.552 21.706C221.141 21.09 220.6 20.6747 219.928 20.46L219.9 20.474C219.956 20.8007 219.998 21.1693 220.026 21.58C220.063 21.9813 220.082 22.3687 220.082 22.742V24.716H218.36V22.714C218.36 21.818 218.425 21.0713 218.556 20.474L218.528 20.46C217.818 20.6933 217.263 21.104 216.862 21.692C216.46 22.2707 216.26 23.1013 216.26 24.184C216.26 24.94 216.381 25.598 216.624 26.158C216.876 26.7087 217.226 27.1333 217.674 27.432C218.122 27.7213 218.64 27.866 219.228 27.866C219.825 27.866 220.343 27.7213 220.782 27.432C221.23 27.1333 221.575 26.7087 221.818 26.158C222.06 25.6073 222.182 24.9493 222.182 24.184ZM224.858 25.836C224.858 25.5187 224.895 25.22 224.97 24.94C225.054 24.6507 225.152 24.394 225.264 24.17H226.944C226.72 24.7207 226.608 25.2573 226.608 25.78C226.608 26.172 226.682 26.5267 226.832 26.844C226.981 27.152 227.196 27.3993 227.476 27.586C227.765 27.7633 228.092 27.852 228.456 27.852C228.838 27.852 229.17 27.7633 229.45 27.586C229.73 27.3993 229.944 27.152 230.094 26.844C230.243 26.5267 230.318 26.172 230.318 25.78C230.318 25.304 230.252 24.8887 230.122 24.534C229.991 24.17 229.828 23.8573 229.632 23.596C229.436 23.3347 229.16 23.0173 228.806 22.644C228.507 22.3267 228.255 22.014 228.05 21.706C227.844 21.398 227.672 21.0247 227.532 20.586C227.401 20.138 227.336 19.6107 227.336 19.004H229.086C229.086 19.62 229.184 20.1427 229.38 20.572C229.585 21.0013 229.879 21.426 230.262 21.846C230.682 22.3127 231.008 22.7047 231.242 23.022C231.475 23.33 231.671 23.722 231.829 24.198C231.998 24.6647 232.082 25.2107 232.082 25.836C232.082 26.48 231.923 27.0633 231.606 27.586C231.288 28.1087 230.85 28.5147 230.29 28.804C229.739 29.0933 229.123 29.238 228.442 29.238C227.751 29.238 227.13 29.0933 226.58 28.804C226.038 28.5147 225.614 28.1133 225.306 27.6C225.007 27.0773 224.858 26.4893 224.858 25.836ZM238.689 27.628H234.433V26.41H235.819V26.354C235.343 26.1767 234.9 25.9153 234.489 25.57C234.079 25.2153 233.747 24.7813 233.495 24.268C233.253 23.7453 233.131 23.1713 233.131 22.546C233.131 21.79 233.253 21.1273 233.495 20.558C233.738 19.9887 234.079 19.55 234.517 19.242C234.965 18.9247 235.474 18.766 236.043 18.766C236.491 18.766 236.907 18.892 237.289 19.144C237.672 19.3867 237.943 19.718 238.101 20.138H238.157C238.241 19.858 238.381 19.6153 238.577 19.41C238.783 19.1953 239.016 19.0367 239.277 18.934C239.548 18.822 239.814 18.766 240.075 18.766C240.355 18.766 240.631 18.822 240.901 18.934C241.172 19.0367 241.405 19.1953 241.601 19.41C241.807 19.6153 241.947 19.858 242.021 20.138H242.077C242.264 19.6993 242.535 19.3633 242.889 19.13C243.244 18.8873 243.655 18.766 244.121 18.766C244.691 18.766 245.195 18.92 245.633 19.228C246.072 19.536 246.413 19.97 246.655 20.53C246.907 21.09 247.033 21.7293 247.033 22.448C247.033 23.5867 246.856 24.5713 246.501 25.402H244.751C245.106 24.5527 245.283 23.5867 245.283 22.504C245.283 21.7387 245.171 21.1553 244.947 20.754C244.723 20.3433 244.415 20.138 244.023 20.138C243.799 20.138 243.599 20.2033 243.421 20.334C243.244 20.4553 243.109 20.628 243.015 20.852C242.922 21.0667 242.875 21.3187 242.875 21.608V24.17H241.237V21.594C241.237 21.146 241.13 20.7913 240.915 20.53C240.71 20.2687 240.435 20.138 240.089 20.138C239.856 20.138 239.651 20.2033 239.473 20.334C239.305 20.4553 239.17 20.628 239.067 20.852C238.974 21.0667 238.927 21.314 238.927 21.594V24.17H237.289V21.622C237.289 21.1647 237.191 20.8053 236.995 20.544C236.799 20.2733 236.529 20.138 236.183 20.138C235.922 20.138 235.693 20.2313 235.497 20.418C235.301 20.6047 235.147 20.8753 235.035 21.23C234.933 21.5753 234.881 21.9907 234.881 22.476C234.881 23.204 235.054 23.8433 235.399 24.394C235.745 24.9353 236.179 25.36 236.701 25.668C237.233 25.976 237.77 26.158 238.311 26.214C238.395 26.2233 238.484 26.2327 238.577 26.242C238.68 26.2513 238.783 26.2607 238.885 26.27C240.08 26.382 240.925 26.5033 241.419 26.634C242.175 26.8393 242.745 27.1427 243.127 27.544C243.51 27.936 243.72 28.4213 243.757 29H241.895C241.811 28.5147 241.466 28.1647 240.859 27.95C240.262 27.7353 239.539 27.628 238.689 27.628ZM253.647 24.394V22.546C253.647 22.0887 253.581 21.6827 253.451 21.328C253.32 20.964 253.119 20.6793 252.849 20.474C252.578 20.2593 252.247 20.152 251.855 20.152C251.463 20.152 251.131 20.2593 250.861 20.474C250.599 20.6793 250.399 20.964 250.259 21.328C250.128 21.6827 250.063 22.0887 250.063 22.546V24.394C250.063 25.234 250.151 26.0787 250.329 26.928C250.515 27.768 250.735 28.4587 250.987 29H249.251C248.989 28.496 248.765 27.8147 248.579 26.956C248.401 26.0973 248.313 25.2293 248.313 24.352V22.448C248.313 21.7107 248.462 21.062 248.761 20.502C249.069 19.942 249.489 19.5127 250.021 19.214C250.562 18.9153 251.173 18.766 251.855 18.766C252.536 18.766 253.147 18.92 253.689 19.228C254.23 19.5267 254.65 19.956 254.949 20.516C255.257 21.076 255.411 21.7247 255.411 22.462V24.352C255.411 25.22 255.317 26.0833 255.131 26.942C254.944 27.8007 254.72 28.4867 254.459 29H252.723C252.975 28.468 253.189 27.7773 253.367 26.928C253.553 26.0787 253.647 25.234 253.647 24.394Z" fill="white"/>
<path d="M72 5V28" stroke="white" stroke-width="1.5" stroke-linecap="round"/>
<defs>
<clipPath id="clip0_8822_487131">
<rect width="60" height="26" fill="white" transform="translate(0 3)"/>
</clipPath>
</defs>
</svg>

