<svg width="28" height="28" viewBox="0 0 28 28" fill="none" xmlns="http://www.w3.org/2000/svg">
<path fill-rule="evenodd" clip-rule="evenodd" d="M6.39748 12.2581L10.1165 12.2103C11.5525 13.0374 12.8378 14.106 13.945 15.4594C16.8079 10.7224 20.0954 6.84206 23.7094 3.60655L26.4432 1.55548C21.3887 7.16066 17.3627 15.2111 14.0637 21.5659C12.3013 17.7904 9.83338 14.6141 6.39748 12.2581ZM27.1932 9.31426L24.9581 10.1687C25.0609 10.4558 25.1568 10.7588 25.2412 11.0983C25.5357 12.2444 25.6499 13.4156 25.5928 14.5731C25.5357 15.742 25.3052 16.8904 24.9056 17.9841C24.513 19.0618 23.9582 20.0803 23.2528 20.9985C22.5701 21.8872 21.7437 22.6869 20.7826 23.3568H20.7803C20.4241 23.6052 20.0634 23.833 19.6982 24.0381C19.326 24.2454 18.9493 24.4346 18.5658 24.6032C17.7097 24.9791 16.8399 25.2503 15.9678 25.4143C15.0774 25.5829 14.1847 25.6445 13.3012 25.6012L13.0136 25.5852L12.3858 27.9275L12.815 27.9594C13.9405 28.046 15.082 27.9891 16.2212 27.7908C17.3353 27.5949 18.4471 27.2622 19.5338 26.7814C19.9812 26.5832 20.4241 26.3622 20.8648 26.1138C21.294 25.8723 21.7209 25.6034 22.1478 25.305C23.319 24.4892 24.3235 23.5186 25.1545 22.4386C26.0152 21.3221 26.6841 20.0894 27.1567 18.7906C27.6361 17.4737 27.9169 16.0883 27.9831 14.6802C28.0516 13.2903 27.9123 11.8822 27.5562 10.4991C27.458 10.0981 27.3325 9.71072 27.1932 9.31426ZM5.5368 25.15C6.35639 25.788 7.23534 26.3235 8.1531 26.7495L8.53892 26.9295L9.16674 24.5941L8.9042 24.4619C8.23757 24.1315 7.59605 23.7282 6.99334 23.2588C6.39977 22.7986 5.845 22.27 5.33818 21.6798L5.14412 21.4565L3.05063 22.6619L3.32002 22.9877C3.98665 23.8011 4.7309 24.5211 5.5368 25.15ZM0.13069 15.8445C0.272235 16.863 0.530212 17.8678 0.904622 18.8408L1.0553 19.2327L3.1488 18.0273L3.04834 17.7471C2.79037 17.0248 2.60773 16.282 2.50043 15.5324C2.39313 14.7827 2.36573 14.0217 2.41367 13.2629L2.43194 12.969L0.0941622 12.3401L0.0553514 12.7639C-0.038251 13.7893 -0.0131381 14.8215 0.13069 15.8445ZM1.9137 7.05852C1.70595 7.41169 1.51418 7.76714 1.34295 8.12943L1.15575 8.51677L3.49581 9.14337L3.62822 8.8859C3.76064 8.62842 3.8999 8.37778 4.04829 8.13626C4.19669 7.89018 4.3565 7.64866 4.52544 7.41397C4.80168 7.02434 5.10075 6.64838 5.4158 6.29066C5.72857 5.9352 6.05732 5.60026 6.39748 5.29266L6.6098 5.09671L5.39754 2.99818L5.06879 3.283C4.61447 3.67946 4.17614 4.10783 3.75835 4.57037C3.34057 5.03291 2.94789 5.52051 2.58262 6.0309C2.34062 6.3704 2.11689 6.71218 1.9137 7.05852ZM11.5159 0.179648C10.7146 0.314081 9.93839 0.523705 9.19414 0.803964L8.7969 0.952068L10.0069 3.04375L10.2854 2.94578C10.8539 2.74982 11.4429 2.60172 12.0479 2.5083C12.6414 2.41488 13.2487 2.37615 13.8697 2.38982C14.1459 2.39665 14.4382 2.41488 14.7349 2.44906C15.0226 2.48096 15.308 2.52425 15.5888 2.58121C15.881 2.64046 16.1709 2.70881 16.4563 2.79312C16.7394 2.87742 17.0271 2.9754 17.3216 3.08933H17.3238C17.6321 3.20781 17.9585 3.19186 18.2393 3.06882C18.5201 2.94578 18.753 2.71565 18.8717 2.40805C18.9904 2.10045 18.9744 1.77462 18.8512 1.49436C18.7279 1.2141 18.4973 0.981689 18.1891 0.863205C17.8398 0.728772 17.4859 0.60801 17.1252 0.50092C16.7645 0.396107 16.4129 0.307245 16.0636 0.238889C15.7098 0.168255 15.3582 0.11357 15.0112 0.0748353C14.6573 0.0361004 14.2966 0.0110366 13.9268 0.00192251C13.1049 -0.0117487 12.299 0.047493 11.5159 0.179648Z" fill="#1D9F70"/>
</svg>
