<svg width="16" height="18" viewBox="0 0 16 18" fill="none" xmlns="http://www.w3.org/2000/svg">
<path d="M15 8.05882C15 12.7478 9.95075 15.9215 8.42897 16.7715C8.1598 16.9219 7.8402 16.9219 7.57103 16.7715C6.04925 15.9215 1 12.7478 1 8.05882C1 3.82353 4.39174 1 8 1C11.7333 1 15 3.82353 15 8.05882Z" stroke="#626262"/>
<path d="M4.52304 8.78688L7.75162 12.0426L7.75162 12.0426C7.86436 12.1563 7.92073 12.2131 7.99046 12.217C7.99725 12.2174 8.00405 12.2174 8.01084 12.217C8.08057 12.2131 8.13694 12.1563 8.24968 12.0426L8.24968 12.0426L11.4783 8.78688C12.1709 8.0884 12.2785 6.99977 11.736 6.17918C10.8809 4.88567 8.96122 4.95154 8.19674 6.30062L8.07341 6.51826C8.04138 6.57479 7.95993 6.57479 7.92789 6.51826L7.80456 6.30062C7.04008 4.95154 5.12041 4.88567 4.26526 6.17918C3.72276 6.99977 3.83037 8.08839 4.52304 8.78688Z" stroke="#626262"/>
</svg>
