<svg width="15" height="15" viewBox="0 0 15 15" fill="none" xmlns="http://www.w3.org/2000/svg">
<path d="M10.4665 3.6129C10.4665 5.35178 9.11905 6.72581 7.49987 6.72581C5.88069 6.72581 4.5332 5.35178 4.5332 3.6129C4.5332 1.87402 5.88069 0.5 7.49987 0.5C9.11905 0.5 10.4665 1.87402 10.4665 3.6129Z" stroke="#626262" stroke-linecap="round"/>
<path d="M1.18897 12.1793C1.69257 9.74425 4.19098 8.58008 6.67758 8.58008H8.32242C10.809 8.58008 13.3074 9.74425 13.811 12.1793C13.8655 12.4426 13.9105 12.7169 13.9429 13.0009C14.0054 13.5496 13.5523 13.9994 13 13.9994H2C1.44772 13.9994 0.994564 13.5496 1.05715 13.0009C1.08954 12.7169 1.13451 12.4426 1.18897 12.1793Z" stroke="#626262" stroke-linecap="round"/>
</svg>
