<svg width="28" height="28" viewBox="0 0 28 28" fill="none" xmlns="http://www.w3.org/2000/svg">
<g clip-path="url(#clip0_1773_93676)">
<path d="M22.8635 12.2173L21.0801 11.4409C20.9456 10.9974 20.7721 10.5678 20.5619 10.1573L21.3392 8.39842L19.815 6.81381L18.0012 7.55857C17.6075 7.33765 17.194 7.1572 16.7666 7.01981L16.0197 5.14997H13.8096L13.0475 7.06735C12.6996 7.18239 12.3628 7.33093 12.0415 7.51103L10.1514 6.73458L8.62722 8.31918L9.40457 10.2049C9.22615 10.5549 9.07822 10.9208 8.96255 11.2982L7.07251 12.1381V14.515L8.97779 15.339C9.09073 15.7073 9.23881 16.063 9.41982 16.4007L8.62722 18.3339L10.1514 19.9185L12.0872 19.1262C12.3873 19.2863 12.698 19.424 13.017 19.5382L13.8096 21.5031H16.0502L16.7666 19.6491C17.1136 19.545 17.4504 19.407 17.7726 19.2371L19.6474 19.9977L21.1716 18.4131L20.44 16.6225C20.6527 16.2244 20.8263 15.805 20.9582 15.3707L22.8635 14.5308V12.2173ZM15.0137 16.3373C14.444 16.3373 13.887 16.1616 13.4132 15.8326C12.9395 15.5035 12.5703 15.0357 12.3522 14.4885C12.1342 13.9412 12.0771 13.3391 12.1883 12.7581C12.2994 12.1772 12.5738 11.6435 12.9767 11.2247C13.3796 10.8058 13.8929 10.5206 14.4517 10.405C15.0105 10.2895 15.5898 10.3488 16.1161 10.5755C16.6425 10.8021 17.0925 11.186 17.409 11.6785C17.7255 12.171 17.8945 12.7501 17.8945 13.3424C17.8945 13.737 17.8195 14.1278 17.6738 14.4922C17.528 14.8566 17.3145 15.1874 17.0454 15.4657C16.7762 15.744 16.4569 15.9643 16.1056 16.1139C15.7543 16.2635 15.3781 16.3394 14.9985 16.3373H15.0137Z" fill="#666666"/>
<path d="M3.65826 12.3599L2.13403 12.1698C2.13403 12.043 3.65826 0.52292 14.907 0L14.9832 1.58461C5.01482 2.04414 3.71923 11.9321 3.65826 12.3599Z" fill="#666666"/>
<path d="M0 12.1539L5.88351 12.1222L3.56668 17.0821L0 12.1539Z" fill="#666666"/>
<path d="M26.5824 19.6808L25.2106 18.9994C29.4937 9.63441 21.6897 3.80306 21.3391 3.54952L22.2232 2.25014C22.3299 2.32937 31.4295 9.0798 26.5824 19.6808Z" fill="#666666"/>
<path d="M23.2596 0.285233L20.516 5.70459L17.3914 1.26769L23.2596 0.285233Z" fill="#666666"/>
<path d="M15.6081 27.0809C13.3803 27.1199 11.1828 26.5397 9.24282 25.4003C7.30281 24.2609 5.6906 22.6037 4.57275 20.5999L5.8531 19.7442C11.2336 28.5229 20.1198 24.7357 20.4857 24.498L21.0801 25.9559C19.3339 26.6623 17.4815 27.0431 15.6081 27.0809Z" fill="#666666"/>
<path d="M22.1623 28.0158L19.2053 22.7233L24.4791 22.3271L22.1623 28.0158Z" fill="#666666"/>
</g>
<defs>
<clipPath id="clip0_1773_93676">
<rect width="28" height="28" fill="white"/>
</clipPath>
</defs>
</svg>
