<svg width="16" height="18" viewBox="0 0 16 18" fill="none" xmlns="http://www.w3.org/2000/svg">
<path d="M1 10.3311C1 8.44544 1 7.50263 1.58579 6.91684C2.17157 6.33105 3.11438 6.33105 5 6.33105H11C12.8856 6.33105 13.8284 6.33105 14.4142 6.91684C15 7.50263 15 8.44544 15 10.3311V10.9986C15 13.827 15 15.2412 14.1213 16.1199C13.2426 16.9986 11.8284 16.9986 9 16.9986H7C4.17157 16.9986 2.75736 16.9986 1.87868 16.1199C1 15.2412 1 13.827 1 10.9986V10.3311Z" stroke="#626262"/>
<path d="M11.5 5.44481V4.5C11.5 2.567 9.933 1 8 1V1C6.067 1 4.5 2.567 4.5 4.5V5.44481" stroke="#626262" stroke-linecap="round"/>
<ellipse cx="8" cy="11.6695" rx="1.75" ry="1.77792" fill="#626262"/>
</svg>
