<svg width="16" height="18" viewBox="0 0 16 18" fill="none" xmlns="http://www.w3.org/2000/svg">
<path d="M8 1V2.68411" stroke="#626262" stroke-linecap="round"/>
<path d="M8 6.89258V8.57669" stroke="#626262" stroke-linecap="round"/>
<path d="M8 12.79V17.0003" stroke="#626262" stroke-linecap="round"/>
<path d="M3.4707 4.28359C3.4707 3.72354 3.4707 3.44351 3.5797 3.2296C3.67557 3.04144 3.82855 2.88846 4.01671 2.79259C4.23062 2.68359 4.51065 2.68359 5.0707 2.68359H12.5735C12.8597 2.68359 13.0027 2.68359 13.1346 2.72037C13.2514 2.75296 13.3613 2.80651 13.4589 2.87841C13.5691 2.95958 13.6573 3.07227 13.8336 3.29766L14.2288 3.80279C14.5046 4.15526 14.6425 4.33149 14.6955 4.52627C14.7422 4.69812 14.7422 4.87934 14.6955 5.05119C14.6425 5.24596 14.5046 5.4222 14.2288 5.77467L13.8336 6.2798C13.6573 6.50519 13.5691 6.61788 13.4589 6.69905C13.3613 6.77095 13.2514 6.8245 13.1346 6.85708C13.0027 6.89387 12.8597 6.89387 12.5735 6.89387H5.0707C4.51065 6.89387 4.23062 6.89387 4.01671 6.78487C3.82855 6.689 3.67557 6.53602 3.5797 6.34786C3.4707 6.13394 3.4707 5.85392 3.4707 5.29387V4.28359Z" stroke="#626262"/>
<path d="M12.5293 10.1771C12.5293 9.6171 12.5293 9.33707 12.4203 9.12316C12.3244 8.935 12.1714 8.78202 11.9833 8.68614C11.7694 8.57715 11.4893 8.57715 10.9293 8.57715H3.42651C3.14034 8.57715 2.99726 8.57715 2.86541 8.61393C2.74862 8.64651 2.63873 8.70006 2.54111 8.77197C2.4309 8.85314 2.34272 8.96583 2.16638 9.19121L1.77116 9.69635C1.49539 10.0488 1.3575 10.225 1.30452 10.4198C1.25778 10.5917 1.25778 10.7729 1.30452 10.9447C1.3575 11.1395 1.49539 11.3158 1.77116 11.6682L2.16638 12.1734C2.34272 12.3987 2.4309 12.5114 2.54111 12.5926C2.63873 12.6645 2.74862 12.7181 2.86541 12.7506C2.99726 12.7874 3.14034 12.7874 3.42651 12.7874H10.9293C11.4893 12.7874 11.7694 12.7874 11.9833 12.6784C12.1714 12.5826 12.3244 12.4296 12.4203 12.2414C12.5293 12.0275 12.5293 11.7475 12.5293 11.1874V10.1771Z" stroke="#626262"/>
</svg>
